<svg width="18" height="26" viewBox="0 0 18 26" fill="none" xmlns="http://www.w3.org/2000/svg">
<path d="M14.3444 9.95659V6.59161C14.3444 5.10862 13.7552 3.68637 12.7066 2.63774C11.658 1.58911 10.2357 1 8.75274 1C7.26976 1 5.84751 1.58911 4.79888 2.63774C3.75025 3.68637 3.16113 5.10862 3.16113 6.59161V9.91195" stroke="black" stroke-width="2" stroke-linecap="round" stroke-linejoin="round"/>
<path d="M8.74982 18.9801C9.82463 18.9801 10.6959 18.1088 10.6959 17.034C10.6959 15.9592 9.82463 15.0879 8.74982 15.0879C7.67501 15.0879 6.80371 15.9592 6.80371 17.034C6.80371 18.1088 7.67501 18.9801 8.74982 18.9801Z" stroke="black" stroke-width="2" stroke-linecap="round" stroke-linejoin="round"/>
<path d="M8.75 20.8846V19.041" stroke="black" stroke-width="2" stroke-linecap="round" stroke-linejoin="round"/>
<path d="M12.2242 9.49805H5.27711C2.91493 9.49805 1 11.413 1 13.7752V20.7223C1 23.0845 2.91493 24.9994 5.27711 24.9994H12.2242C14.5864 24.9994 16.5014 23.0845 16.5014 20.7223V13.7752C16.5014 11.413 14.5864 9.49805 12.2242 9.49805Z" stroke="black" stroke-width="2" stroke-linecap="round" stroke-linejoin="round"/>
</svg>
