<svg width="38" height="38" viewBox="0 0 38 38" fill="none" xmlns="http://www.w3.org/2000/svg">
<circle cx="18.6545" cy="18.6545" r="18.6545" fill="white"/>
<path d="M24.3441 15.9566V12.5916C24.3441 11.1086 23.755 9.68637 22.7064 8.63774C21.6577 7.58911 20.2355 7 18.7525 7C17.2695 7 15.8473 7.58911 14.7986 8.63774C13.75 9.68637 13.1609 11.1086 13.1609 12.5916V15.9119" stroke="black" stroke-width="2" stroke-linecap="round" stroke-linejoin="round"/>
<path d="M18.7501 24.9805C19.8249 24.9805 20.6962 24.1092 20.6962 23.0343C20.6962 21.9595 19.8249 21.0882 18.7501 21.0882C17.6753 21.0882 16.804 21.9595 16.804 23.0343C16.804 24.1092 17.6753 24.9805 18.7501 24.9805Z" stroke="black" stroke-width="2" stroke-linecap="round" stroke-linejoin="round"/>
<path d="M18.7505 26.8836V25.04" stroke="black" stroke-width="2" stroke-linecap="round" stroke-linejoin="round"/>
<path d="M22.2242 15.4986H15.2771C12.9149 15.4986 11 17.4136 11 19.7758V26.7229C11 29.0851 12.9149 31 15.2771 31H22.2242C24.5864 31 26.5014 29.0851 26.5014 26.7229V19.7758C26.5014 17.4136 24.5864 15.4986 22.2242 15.4986Z" stroke="black" stroke-width="2" stroke-linecap="round" stroke-linejoin="round"/>
</svg>
