<svg width="56" height="56" viewBox="0 0 56 56" fill="none" xmlns="http://www.w3.org/2000/svg">
<path d="M38.5127 43.0614C36.9329 44.5182 35.208 44.2882 33.5475 43.5981C31.7903 42.8927 30.1782 42.8621 28.3243 43.5981C26.0029 44.5489 24.7777 44.2728 23.3913 43.0614C15.5243 35.3482 16.685 23.6019 25.616 23.1725C27.7923 23.2799 29.3077 24.3073 30.5813 24.3993C32.4835 24.0313 34.3052 22.9732 36.3364 23.1112C38.7707 23.2952 40.6085 24.2153 41.8175 25.8714C36.7878 28.739 37.9807 35.0415 42.5913 36.8049C41.6724 39.1051 40.4795 41.39 38.4966 43.0768L38.5127 43.0614ZM30.42 23.0805C30.1782 19.6609 33.0961 16.8394 36.4493 16.5634C36.9168 20.5197 32.677 23.4639 30.42 23.0805Z" fill="white"/>
</svg>
