<svg width="25" height="25" viewBox="0 0 25 25" fill="none" xmlns="http://www.w3.org/2000/svg">
<path d="M5.80257 8.21584C5.50413 6.25021 6.89007 4.48459 9.00726 3.83771C9.38297 3.72284 9.78834 3.75554 10.1408 3.92915C10.4932 4.10276 10.7662 4.40421 10.9041 4.77209L11.5838 6.58459C11.6932 6.87617 11.713 7.1938 11.6406 7.49671C11.5682 7.79961 11.407 8.07398 11.1776 8.28459L9.15569 10.1361C9.05603 10.2276 8.98177 10.3433 8.94015 10.472C8.89852 10.6007 8.89096 10.738 8.91819 10.8705L8.93694 10.9518L8.98538 11.1549C9.23683 12.1418 9.61996 13.0905 10.1244 13.9752C10.674 14.9154 11.356 15.7715 12.1494 16.5174L12.2119 16.5737C12.3129 16.6632 12.4353 16.7252 12.5673 16.7534C12.6993 16.7816 12.8363 16.7751 12.9651 16.7346L15.5791 15.9111C15.8762 15.8179 16.1944 15.8155 16.4928 15.9043C16.7913 15.9931 17.0564 16.1691 17.2541 16.4096L18.4916 17.9112C19.0073 18.5361 18.9448 19.4549 18.3526 20.0065C16.7323 21.5174 14.5041 21.8268 12.9541 20.5815C11.0542 19.0489 9.4525 17.1797 8.22913 15.0674C6.99584 12.9567 6.1736 10.6321 5.80257 8.21584ZM10.5557 10.9736L12.2307 9.43615C12.6898 9.01511 13.0126 8.46646 13.1577 7.86064C13.3027 7.25482 13.2634 6.61946 13.0448 6.03615L12.3666 4.22365C12.0891 3.48376 11.5399 2.87749 10.831 2.52827C10.1221 2.17905 9.30679 2.11314 8.55101 2.34396C5.92132 3.14865 3.81038 5.50646 4.25726 8.45177C4.56976 10.508 5.29007 13.1237 6.87913 15.8549C8.19899 18.1326 9.92672 20.1479 11.976 21.8002C14.301 23.6674 17.4041 23.0299 19.4198 21.1518C19.9965 20.6148 20.3466 19.8779 20.3986 19.0916C20.4505 18.3053 20.2005 17.5288 19.6994 16.9205L18.4619 15.4174C18.0661 14.9369 17.5357 14.5856 16.9388 14.4085C16.342 14.2315 15.7058 14.2367 15.1119 14.4236L12.9416 15.1065C12.3813 14.5287 11.8904 13.8874 11.4791 13.1955C11.0818 12.4961 10.7722 11.7504 10.5573 10.9752" fill="#FFFCFC"/>
</svg>
