<svg width="21" height="19" viewBox="0 0 21 19" fill="none" xmlns="http://www.w3.org/2000/svg">
<path fill-rule="evenodd" clip-rule="evenodd" d="M6.20037 2.17964C6.46116 0.903231 7.60005 0 8.904 0H12.096C13.4 0 14.5379 0.903231 14.7996 2.17964C14.8285 2.32019 14.9039 2.44698 15.0137 2.53959C15.1236 2.6322 15.2615 2.68525 15.4052 2.69021H15.4374C16.8078 2.75062 17.8607 2.91821 18.7398 3.49405C19.2936 3.85651 19.7703 4.32226 20.1414 4.86692C20.6034 5.54313 20.8066 6.32067 20.9043 7.25995C21 8.17877 21 9.32949 21 10.7871V10.8699C21 12.3276 21 13.4793 20.9043 14.3971C20.8066 15.3364 20.6034 16.1139 20.1414 16.7911C19.7691 17.3361 19.2928 17.8026 18.7398 18.164C18.0532 18.6132 17.2649 18.8119 16.3097 18.9065C15.374 19 14.2009 19 12.7104 19H8.28963C6.79912 19 5.62605 19 4.69033 18.9065C3.73507 18.8119 2.94684 18.6142 2.26019 18.164C1.70706 17.8023 1.23079 17.3355 0.858558 16.7902C0.396558 16.1139 0.193395 15.3364 0.095721 14.3971C5.09412e-08 13.4793 0 12.3276 0 10.8699V10.7871C0 9.32949 5.09412e-08 8.17877 0.095721 7.25995C0.193395 6.32067 0.396558 5.54313 0.858558 4.86692C1.23079 4.32159 1.70706 3.85475 2.26019 3.49308C3.13926 2.91821 4.19219 2.75062 5.56256 2.69118L5.57916 2.69021H5.59479C5.73853 2.68525 5.87641 2.6322 5.98626 2.53959C6.0961 2.44698 6.17152 2.32019 6.20037 2.17964ZM8.904 1.46154C8.27888 1.46154 7.75437 1.89318 7.63619 2.47097C7.44572 3.40636 6.61353 4.14297 5.61237 4.15174C4.29572 4.21021 3.59051 4.37097 3.06307 4.7159C2.67128 4.97237 2.33378 5.30309 2.06972 5.68928C1.80014 6.0839 1.638 6.58959 1.55205 7.41097C1.46609 8.24503 1.46512 9.32072 1.46512 10.829C1.46512 12.3373 1.46512 13.4121 1.55302 14.2461C1.638 15.0675 1.80014 15.5732 2.0707 15.9688C2.33246 16.3527 2.66944 16.6839 3.06405 16.9422C3.47135 17.2082 3.99293 17.3689 4.83586 17.4527C5.68954 17.5375 6.78935 17.5385 8.32967 17.5385H12.6703C14.2097 17.5385 15.3095 17.5385 16.1641 17.4527C17.0071 17.3689 17.5287 17.2091 17.936 16.9422C18.3306 16.6839 18.6685 16.3527 18.9303 15.9678C19.1999 15.5732 19.362 15.0675 19.448 14.2461C19.5339 13.4121 19.5349 12.3364 19.5349 10.829C19.5349 9.32072 19.5349 8.24503 19.447 7.41097C19.362 6.58959 19.1999 6.0839 18.9293 5.68928C18.6655 5.30257 18.328 4.97149 17.936 4.71492C17.4105 4.37097 16.7053 4.21021 15.3867 4.15174C14.3865 4.142 13.5543 3.40733 13.3638 2.47097C13.3013 2.18283 13.141 1.92503 12.91 1.74112C12.6791 1.55721 12.3915 1.45846 12.096 1.46154H8.904ZM10.5 8.28205C9.91714 8.28205 9.35815 8.51303 8.94601 8.92416C8.53387 9.3353 8.30233 9.89292 8.30233 10.4744C8.30233 11.0558 8.53387 11.6134 8.94601 12.0246C9.35815 12.4357 9.91714 12.6667 10.5 12.6667C11.0829 12.6667 11.6418 12.4357 12.054 12.0246C12.4661 11.6134 12.6977 11.0558 12.6977 10.4744C12.6977 9.89292 12.4661 9.3353 12.054 8.92416C11.6418 8.51303 11.0829 8.28205 10.5 8.28205ZM6.83721 10.4744C6.83721 9.5053 7.22311 8.57593 7.91002 7.8907C8.59692 7.20547 9.52857 6.82051 10.5 6.82051C11.4714 6.82051 12.4031 7.20547 13.09 7.8907C13.7769 8.57593 14.1628 9.5053 14.1628 10.4744C14.1628 11.4434 13.7769 12.3728 13.09 13.058C12.4031 13.7432 11.4714 14.1282 10.5 14.1282C9.52857 14.1282 8.59692 13.7432 7.91002 13.058C7.22311 12.3728 6.83721 11.4434 6.83721 10.4744ZM15.6279 7.55128C15.6279 7.35747 15.7051 7.1716 15.8425 7.03455C15.9798 6.8975 16.1662 6.82051 16.3605 6.82051H17.3372C17.5315 6.82051 17.7178 6.8975 17.8552 7.03455C17.9926 7.1716 18.0698 7.35747 18.0698 7.55128C18.0698 7.74509 17.9926 7.93097 17.8552 8.06801C17.7178 8.20506 17.5315 8.28205 17.3372 8.28205H16.3605C16.1662 8.28205 15.9798 8.20506 15.8425 8.06801C15.7051 7.93097 15.6279 7.74509 15.6279 7.55128Z" fill="#6D6969"/>
</svg>
