<svg width="43" height="43" viewBox="0 0 43 43" fill="none" xmlns="http://www.w3.org/2000/svg">
<path d="M21.5008 4.2998C24.0982 4.30131 26.6616 4.89107 28.9985 6.02483C31.3355 7.15859 33.3853 8.80691 34.9941 10.8461C36.603 12.8853 37.7291 15.2624 38.288 17.799C38.8469 20.3356 38.824 22.9658 38.2211 25.4923C37.6181 28.0188 36.4508 30.3759 34.8067 32.3868C33.1627 34.3977 31.0845 36.0101 28.7282 37.103C26.3719 38.196 23.7986 38.7411 21.2016 38.6974C18.6045 38.6537 16.051 38.0224 13.7328 36.8508L13.4727 36.7111L5.63593 38.6676C5.48511 38.7055 5.32786 38.7102 5.17502 38.6815C5.02219 38.6527 4.87741 38.5911 4.75069 38.501C4.62396 38.4109 4.5183 38.2943 4.441 38.1594C4.36369 38.0244 4.31659 37.8743 4.30293 37.7194V37.5431L4.33303 37.3647L6.28953 29.5301L6.15408 29.2721C5.17021 27.3352 4.56456 25.2286 4.36958 23.065L4.31583 22.2437L4.30078 21.4998C4.30078 16.9381 6.11292 12.5632 9.33854 9.33757C12.5642 6.11194 16.9391 4.2998 21.5008 4.2998ZM21.5008 6.4498C18.8745 6.44938 16.2938 7.13622 14.0151 8.44208C11.7365 9.74794 9.83924 11.6274 8.51191 13.8936C7.18458 16.1598 6.47338 18.7338 6.44899 21.36C6.4246 23.9862 7.08787 26.5731 8.37288 28.8636C8.47264 29.0417 8.51963 29.2445 8.50833 29.4484L8.47823 29.6505L6.85283 36.1456L13.3544 34.5245C13.4866 34.4919 13.6237 34.4846 13.7586 34.503L13.9543 34.5482L14.1413 34.632C16.148 35.7554 18.3855 36.404 20.6819 36.5279C22.9783 36.6519 25.2725 36.2479 27.3885 35.347C29.5044 34.4462 31.3858 33.0724 32.8881 31.3311C34.3904 29.5899 35.4737 27.5275 36.0547 25.3024C36.6358 23.0773 36.6992 20.7486 36.2401 18.4951C35.7809 16.2417 34.8115 14.1235 33.4062 12.303C32.0008 10.4826 30.197 9.00851 28.1332 7.99385C26.0694 6.97919 23.8005 6.45099 21.5008 6.4498ZM22.5758 23.6498C22.8444 23.6493 23.1035 23.7494 23.302 23.9304C23.5005 24.1114 23.6241 24.3601 23.6484 24.6277C23.6726 24.8952 23.5959 25.1621 23.4332 25.3759C23.2705 25.5896 23.0336 25.7347 22.7693 25.7826L22.5758 25.7998H16.1258C15.8571 25.8003 15.5981 25.7002 15.3995 25.5192C15.201 25.3382 15.0775 25.0895 15.0532 24.8219C15.0289 24.5544 15.1057 24.2875 15.2684 24.0737C15.4311 23.86 15.6679 23.7149 15.9323 23.667L16.1258 23.6498H22.5758ZM26.8758 17.1998C27.1444 17.1993 27.4035 17.2994 27.602 17.4804C27.8005 17.6614 27.9241 17.9101 27.9484 18.1777C27.9726 18.4452 27.8959 18.7121 27.7332 18.9259C27.5705 19.1396 27.3336 19.2847 27.0693 19.3326L26.8758 19.3498H16.1258C15.8571 19.3503 15.5981 19.2502 15.3995 19.0692C15.201 18.8882 15.0775 18.6395 15.0532 18.3719C15.0289 18.1044 15.1057 17.8375 15.2684 17.6237C15.4311 17.41 15.6679 17.2649 15.9323 17.217L16.1258 17.1998H26.8758Z" fill="white"/>
</svg>
