<svg width="32" height="32" viewBox="0 0 32 32" fill="none" xmlns="http://www.w3.org/2000/svg">
<path d="M30.3102 9.43977C30.3614 9.62537 30.2967 9.83017 30.1886 9.99017L26.739 15.123C26.611 15.3214 26.3422 15.4302 26.1175 15.4302C26.0535 15.4302 25.8743 15.4174 25.8046 15.3982L23.0398 14.7198V26.8798C23.0398 27.251 22.7774 27.5198 22.3998 27.5198H8.95978C8.58218 27.5198 8.31978 27.251 8.31978 26.8798V14.7198L5.83658 15.4046C5.54858 15.4942 5.29898 15.379 5.13898 15.1294L1.71498 10.0094C1.60618 9.84297 1.57418 9.65737 1.62538 9.47177C1.67018 9.27977 1.80458 9.15177 1.97738 9.06217L8.95978 5.75977H12.1598C12.5374 5.75977 12.7998 6.02217 12.7998 6.39977C12.7998 7.71817 14.6494 8.65257 15.9678 8.65257C17.2862 8.65257 19.1998 7.72457 19.1998 6.39977C19.1998 6.02857 19.4622 5.75977 19.8398 5.75977H23.0398L29.9518 8.99817C30.131 9.08777 30.259 9.24777 30.3102 9.43977Z" fill="#6D6969"/>
</svg>
