<svg width="38" height="38" viewBox="0 0 38 38" fill="none" xmlns="http://www.w3.org/2000/svg">
<circle cx="18.6545" cy="18.6545" r="18.6545" fill="white"/>
<path d="M17.167 22.8013L17.161 22.7873C17.0403 22.7588 16.9203 22.7274 16.801 22.6933L16.792 22.6903C15.6513 22.3624 14.5978 21.7848 13.708 20.9993C12.7294 20.136 11.9768 19.0464 11.5159 17.8256C11.055 16.6047 10.8997 15.2896 11.0637 13.995C11.2276 12.7004 11.7058 11.4655 12.4564 10.3981C13.2071 9.33062 14.2075 8.46302 15.3704 7.87091C16.5333 7.2788 17.8234 6.98016 19.1282 7.00102C20.433 7.02189 21.7129 7.36163 22.8563 7.99062C23.9997 8.61961 24.9718 9.51876 25.688 10.6097C26.4041 11.7006 26.8425 12.9501 26.965 14.2493C27.004 14.6623 26.665 14.9993 26.25 14.9993C25.836 14.9993 25.505 14.6623 25.457 14.2503C25.3248 13.1136 24.8948 12.0319 24.2106 11.1147C23.5263 10.1974 22.6121 9.47702 21.5602 9.02638C20.5082 8.57574 19.356 8.41079 18.2199 8.54822C17.0838 8.68565 16.0042 9.12058 15.09 9.80905C14.1759 10.4975 13.4598 11.4151 13.014 12.4691C12.5682 13.523 12.4086 14.676 12.5512 15.8115C12.6939 16.9469 13.1338 18.0246 13.8264 18.9355C14.5191 19.8464 15.44 20.5584 16.496 20.9993L16.536 21.0163C16.736 21.0983 16.9413 21.1706 17.152 21.2333C17.329 20.8056 17.6489 20.4525 18.0571 20.2343C18.4653 20.0161 18.9365 19.9462 19.3905 20.0366C19.8444 20.1269 20.253 20.372 20.5465 20.7299C20.84 21.0878 21.0003 21.5364 21 21.9993C21.0004 22.4589 20.8426 22.9047 20.5529 23.2616C20.2632 23.6185 19.8595 23.8647 19.4096 23.9588C18.9597 24.053 18.4911 23.9893 18.0827 23.7784C17.6742 23.5676 17.3509 23.2226 17.167 22.8013ZM16.181 24.0733C14.4045 23.5208 12.8294 22.4589 11.651 21.0193C10.9207 21.1048 10.2473 21.4556 9.75856 22.0049C9.26985 22.5543 8.99991 23.264 9 23.9993V24.7143C9 28.4323 13.21 30.9993 19 30.9993C24.79 30.9993 29 28.2913 29 24.7143V23.9993C29 23.2036 28.6839 22.4406 28.1213 21.878C27.5587 21.3154 26.7956 20.9993 26 20.9993H22.355C22.5909 21.7893 22.5403 22.6373 22.2121 23.3937C21.884 24.15 21.2993 24.7663 20.5613 25.1338C19.8232 25.5012 18.9791 25.5964 18.1777 25.4024C17.3764 25.2084 16.6693 24.7377 16.181 24.0733ZM24 14.9993C24 13.4873 23.33 12.1323 22.269 11.2153C21.7366 10.7561 21.1134 10.4143 20.44 10.2122C19.7666 10.0101 19.0582 9.95236 18.3609 10.0426C17.6637 10.1329 16.9933 10.3693 16.3936 10.7362C15.7939 11.1031 15.2783 11.5924 14.8805 12.172C14.4826 12.7517 14.2115 13.4088 14.0849 14.1004C13.9582 14.7919 13.9788 15.5024 14.1453 16.1855C14.3118 16.8685 14.6205 17.5088 15.0512 18.0645C15.482 18.6201 16.025 19.0787 16.645 19.4103C17.2893 18.8242 18.129 18.4994 19 18.4993C19.8714 18.4991 20.7114 18.8239 21.356 19.4103C22.1549 18.9835 22.8229 18.3477 23.2886 17.5708C23.7543 16.7939 24.0002 15.9051 24 14.9993Z" fill="black"/>
</svg>
