<svg width="22" height="20" viewBox="0 0 22 20" fill="none" xmlns="http://www.w3.org/2000/svg">
<path d="M17.4821 19.3928C16.5886 19.3928 15.7151 19.1279 14.9722 18.6314C14.2292 18.135 13.6501 17.4294 13.3082 16.6039C12.9662 15.7784 12.8768 14.87 13.0511 13.9936C13.2254 13.1172 13.6557 12.3122 14.2875 11.6804C14.9194 11.0485 15.7244 10.6183 16.6008 10.4439C17.4771 10.2696 18.3855 10.3591 19.2111 10.701C20.0366 11.043 20.7422 11.622 21.2386 12.365C21.735 13.1079 22 13.9814 22 14.875C21.9987 16.0728 21.5223 17.2212 20.6753 18.0682C19.8283 18.9151 18.68 19.3915 17.4821 19.3928ZM17.4821 11.9286C16.8994 11.9286 16.3297 12.1014 15.8452 12.4251C15.3607 12.7489 14.983 13.209 14.76 13.7474C14.537 14.2858 14.4786 14.8782 14.5923 15.4498C14.706 16.0213 14.9866 16.5464 15.3987 16.9584C15.8108 17.3705 16.3358 17.6511 16.9073 17.7648C17.4789 17.8785 18.0713 17.8201 18.6097 17.5971C19.1481 17.3741 19.6083 16.9965 19.932 16.5119C20.2558 16.0274 20.4286 15.4577 20.4286 14.875C20.4277 14.0938 20.1169 13.3449 19.5646 12.7925C19.0122 12.2402 18.2633 11.9295 17.4821 11.9286ZM4.51786 19.3928C3.62431 19.3928 2.75083 19.1279 2.00787 18.6314C1.26491 18.135 0.685849 17.4294 0.343903 16.6039C0.00195752 15.7784 -0.0875111 14.87 0.0868114 13.9936C0.261134 13.1172 0.691418 12.3122 1.32325 11.6804C1.95509 11.0485 2.76009 10.6183 3.63647 10.4439C4.51285 10.2696 5.42124 10.3591 6.24677 10.701C7.0723 11.043 7.77789 11.622 8.27432 12.365C8.77075 13.1079 9.03572 13.9814 9.03572 14.875C9.03442 16.0728 8.55801 17.2212 7.71103 18.0682C6.86405 18.9151 5.71567 19.3915 4.51786 19.3928ZM4.51786 11.9286C3.93511 11.9286 3.36545 12.1014 2.88091 12.4251C2.39637 12.7489 2.01872 13.209 1.79571 13.7474C1.57271 14.2858 1.51436 14.8782 1.62805 15.4498C1.74173 16.0213 2.02235 16.5464 2.43442 16.9584C2.84648 17.3705 3.37149 17.6511 3.94304 17.7648C4.51459 17.8785 5.10702 17.8201 5.64541 17.5971C6.1838 17.3741 6.64397 16.9965 6.96772 16.5119C7.29148 16.0274 7.46429 15.4577 7.46429 14.875C7.46338 14.0938 7.15266 13.3449 6.60029 12.7925C6.04793 12.2402 5.29902 11.9295 4.51786 11.9286ZM14.1429 3.67855C14.3498 3.67927 14.5549 3.63895 14.7462 3.55993C14.9375 3.4809 15.1112 3.36474 15.2574 3.21815C15.4035 3.07157 15.5191 2.89747 15.5975 2.70592C15.676 2.51438 15.7156 2.30919 15.7143 2.10221C15.7166 1.89627 15.6778 1.69194 15.6002 1.50117C15.5226 1.3104 15.4077 1.13701 15.2623 0.991154C15.1169 0.845295 14.9439 0.72989 14.7534 0.651686C14.5628 0.573482 14.3586 0.534049 14.1527 0.535694C13.9463 0.535049 13.7418 0.575057 13.5509 0.653432C13.36 0.731808 13.1864 0.847018 13.0401 0.992482C12.8937 1.13795 12.7774 1.31082 12.6978 1.50123C12.6183 1.69163 12.577 1.89585 12.5763 2.10221C12.5757 2.30857 12.6157 2.51304 12.6941 2.70395C12.7725 2.89485 12.8877 3.06844 13.0331 3.21482C13.1786 3.36119 13.3515 3.47749 13.5419 3.55705C13.7323 3.63662 13.9365 3.67791 14.1429 3.67855Z" fill="#6D6969"/>
<path d="M16.4779 6.82109H14.329C14.2937 6.8211 14.2591 6.81162 14.2288 6.79365C14.1985 6.77568 14.1735 6.74987 14.1566 6.71895L12.5979 3.86239C12.4881 3.6501 12.3299 3.46666 12.136 3.32691C11.9421 3.18715 11.718 3.09502 11.4819 3.05796C11.2457 3.0209 11.0042 3.03996 10.7768 3.1136C10.5495 3.18723 10.3426 3.31337 10.173 3.48181L6.7424 6.93895C6.45419 7.23312 6.2906 7.62715 6.28571 8.03895C6.28571 8.89341 6.90446 9.19788 7.19419 9.36975C8.59374 10.1761 9.57932 10.7659 10.12 11.0934C10.1487 11.1109 10.1725 11.1355 10.189 11.1648C10.2055 11.1941 10.2142 11.2272 10.2143 11.2609V14.6552C10.2143 15.078 10.5394 15.4409 10.9622 15.462C11.0683 15.4671 11.1744 15.4506 11.274 15.4136C11.3736 15.3765 11.4647 15.3196 11.5417 15.2463C11.6186 15.1731 11.68 15.0849 11.7219 14.9873C11.7639 14.8897 11.7856 14.7845 11.7857 14.6782V10.455C11.7858 10.3303 11.7562 10.2073 11.6993 10.0963C11.6424 9.98531 11.5599 9.88944 11.4587 9.81663L9.64169 8.50988C9.61888 8.49357 9.59983 8.47255 9.58582 8.44826C9.57182 8.42396 9.56317 8.39695 9.56047 8.36904C9.55777 8.34112 9.56108 8.31296 9.57018 8.28643C9.57928 8.2599 9.59395 8.23563 9.61321 8.21524L11.6757 6.01573C11.6969 5.9931 11.7231 5.9758 11.7522 5.96522C11.7813 5.95465 11.8125 5.95111 11.8432 5.95489C11.874 5.95867 11.9034 5.96967 11.929 5.98699C11.9547 6.0043 11.9759 6.02745 11.991 6.05453L13.0625 7.98837C13.1306 8.11096 13.2303 8.21308 13.3512 8.28415C13.472 8.35522 13.6098 8.39264 13.75 8.39252H16.5C16.6064 8.39264 16.7118 8.37114 16.8097 8.32931C16.9075 8.28748 16.9959 8.2262 17.0694 8.14918C17.1429 8.07217 17.1999 7.98103 17.2371 7.8813C17.2743 7.78156 17.2908 7.67531 17.2857 7.56899C17.2651 7.14618 16.9007 6.82109 16.4779 6.82109Z" fill="#6D6969"/>
</svg>
