<svg width="24" height="24" viewBox="0 0 24 24" fill="none" xmlns="http://www.w3.org/2000/svg">
<circle cx="12" cy="12" r="12" fill="#555454"/>
<path d="M16.125 18C15.5564 18 15.0005 17.8314 14.5277 17.5155C14.0549 17.1996 13.6864 16.7506 13.4688 16.2252C13.2512 15.6999 13.1943 15.1218 13.3052 14.5641C13.4162 14.0065 13.69 13.4942 14.0921 13.0921C14.4941 12.69 15.0064 12.4162 15.5641 12.3053C16.1218 12.1943 16.6999 12.2513 17.2252 12.4689C17.7506 12.6865 18.1996 13.055 18.5155 13.5278C18.8314 14.0006 19 14.5564 19 15.125C18.9992 15.8873 18.696 16.6181 18.157 17.157C17.618 17.696 16.8872 17.9992 16.125 18ZM16.125 13.25C15.7542 13.25 15.3916 13.36 15.0833 13.566C14.775 13.7721 14.5346 14.0649 14.3927 14.4075C14.2508 14.7501 14.2137 15.1271 14.286 15.4908C14.3584 15.8545 14.537 16.1886 14.7992 16.4509C15.0614 16.7131 15.3955 16.8917 15.7592 16.964C16.1229 17.0364 16.4999 16.9992 16.8425 16.8573C17.1851 16.7154 17.478 16.4751 17.684 16.1667C17.89 15.8584 18 15.4959 18 15.125C17.9994 14.6279 17.8017 14.1514 17.4502 13.7998C17.0987 13.4483 16.6221 13.2506 16.125 13.25ZM7.875 18C7.30638 18 6.75053 17.8314 6.27774 17.5155C5.80495 17.1996 5.43645 16.7506 5.21885 16.2252C5.00125 15.6999 4.94431 15.1218 5.05524 14.5641C5.16618 14.0065 5.43999 13.4942 5.84207 13.0921C6.24415 12.69 6.75642 12.4162 7.31412 12.3053C7.87181 12.1943 8.44988 12.2513 8.97522 12.4689C9.50055 12.6865 9.94957 13.055 10.2655 13.5278C10.5814 14.0006 10.75 14.5564 10.75 15.125C10.7492 15.8873 10.446 16.6181 9.90702 17.157C9.36803 17.696 8.63724 17.9992 7.875 18ZM7.875 13.25C7.50416 13.25 7.14165 13.36 6.83331 13.566C6.52496 13.7721 6.28464 14.0649 6.14273 14.4075C6.00081 14.7501 5.96368 15.1271 6.03603 15.4908C6.10838 15.8545 6.28695 16.1886 6.54918 16.4509C6.8114 16.7131 7.14549 16.8917 7.50921 16.964C7.87292 17.0364 8.24992 16.9992 8.59253 16.8573C8.93514 16.7154 9.22798 16.4751 9.43401 16.1667C9.64003 15.8584 9.75 15.4959 9.75 15.125C9.74942 14.6279 9.55169 14.1514 9.20019 13.7998C8.84868 13.4483 8.3721 13.2506 7.875 13.25ZM14 8.00003C14.1317 8.00049 14.2622 7.97483 14.3839 7.92454C14.5057 7.87425 14.6162 7.80033 14.7092 7.70705C14.8022 7.61377 14.8758 7.50298 14.9257 7.38109C14.9756 7.25919 15.0009 7.12862 15 6.99691C15.0015 6.86585 14.9768 6.73583 14.9274 6.61443C14.878 6.49302 14.8049 6.38269 14.7124 6.28987C14.6199 6.19705 14.5097 6.12361 14.3885 6.07384C14.2673 6.02408 14.1373 5.99898 14.0063 6.00003C13.8749 5.99962 13.7448 6.02508 13.6233 6.07496C13.5018 6.12483 13.3914 6.19815 13.2982 6.29071C13.2051 6.38328 13.1311 6.49329 13.0804 6.61446C13.0298 6.73563 13.0035 6.86558 13.0031 6.99691C13.0027 7.12823 13.0282 7.25835 13.0781 7.37983C13.1279 7.50131 13.2012 7.61178 13.2938 7.70493C13.3864 7.79808 13.4964 7.87208 13.6176 7.92272C13.7387 7.97335 13.8687 7.99962 14 8.00003Z" fill="#FFFCFC"/>
<path d="M15.4859 10.0002H14.1184C14.096 10.0002 14.074 9.99416 14.0547 9.98272C14.0354 9.97128 14.0195 9.95486 14.0088 9.93518L13.0169 8.11737C12.947 7.98228 12.8463 7.86555 12.7229 7.77661C12.5995 7.68768 12.4569 7.62905 12.3066 7.60547C12.1564 7.58188 12.0027 7.59401 11.858 7.64087C11.7133 7.68773 11.5817 7.768 11.4738 7.87518L9.29063 10.0752C9.10722 10.2624 9.00311 10.5131 9 10.7752C9 11.3189 9.39375 11.5127 9.57813 11.6221C10.4688 12.1352 11.0959 12.5105 11.44 12.7189C11.4583 12.7301 11.4734 12.7457 11.4839 12.7644C11.4944 12.783 11.5 12.8041 11.5 12.8255V14.9855C11.5 15.2546 11.7069 15.4855 11.9759 15.4989C12.0435 15.5022 12.111 15.4917 12.1744 15.4681C12.2378 15.4445 12.2957 15.4083 12.3447 15.3617C12.3937 15.3151 12.4327 15.259 12.4594 15.1969C12.4861 15.1347 12.4999 15.0678 12.5 15.0002V12.3127C12.5 12.2333 12.4812 12.1551 12.445 12.0844C12.4088 12.0138 12.3563 11.9528 12.2919 11.9064L11.1356 11.0749C11.1211 11.0645 11.109 11.0511 11.1001 11.0357C11.0912 11.0202 11.0857 11.003 11.0839 10.9852C11.0822 10.9675 11.0843 10.9496 11.0901 10.9327C11.0959 10.9158 11.1052 10.9003 11.1175 10.8874L12.43 9.48768C12.4435 9.47328 12.4601 9.46227 12.4787 9.45554C12.4972 9.44881 12.517 9.44656 12.5366 9.44897C12.5562 9.45137 12.5749 9.45837 12.5912 9.46939C12.6076 9.48041 12.6211 9.49514 12.6306 9.51237L13.3125 10.743C13.3558 10.821 13.4193 10.886 13.4962 10.9312C13.5731 10.9764 13.6608 11.0003 13.75 11.0002H15.5C15.5677 11.0003 15.6348 10.9866 15.6971 10.96C15.7594 10.9333 15.8156 10.8943 15.8623 10.8453C15.9091 10.7963 15.9454 10.7383 15.9691 10.6749C15.9927 10.6114 16.0033 10.5438 16 10.4761C15.9869 10.2071 15.755 10.0002 15.4859 10.0002Z" fill="#FFFCFC"/>
</svg>
