<svg width="16" height="18" viewBox="0 0 16 18" fill="none" xmlns="http://www.w3.org/2000/svg">
<path d="M8.04753 1.61905C9.60991 1.61905 12.0951 2.75238 12.0951 5.78809C12.0951 7.53667 10.7028 9.56857 8.04753 11.7138C5.39229 9.56857 3.99991 7.52857 3.99991 5.78809C3.99991 2.75238 6.48515 1.61905 8.04753 1.61905ZM8.04753 0C5.40038 0 2.38086 1.99143 2.38086 5.78809C2.38086 8.31381 4.26705 10.9771 8.04753 13.7619C11.828 10.9771 13.7142 8.31381 13.7142 5.78809C13.7142 1.99143 10.6947 0 8.04753 0Z" fill="#6D6969"/>
<path d="M1.97656 10.9287V17.0001H14.5242V10.9287" stroke="#6D6969" stroke-width="2" stroke-linecap="round"/>
<circle cx="8.04776" cy="5.6669" r="1.61905" fill="#6D6969"/>
</svg>
