<svg width="17" height="17" viewBox="0 0 17 17" fill="none" xmlns="http://www.w3.org/2000/svg">
<path d="M1 13.2928V15.0858C1 15.2184 1.05268 15.3456 1.14645 15.4393C1.24021 15.5331 1.36739 15.5858 1.5 15.5858H3.293C3.42535 15.5858 3.55229 15.5333 3.646 15.4398L12.146 6.93979L9.646 4.43979L1.146 12.9398C1.05253 13.0335 1.00003 13.1604 1 13.2928ZM11.59 2.49579L14.09 4.99579L15.293 3.79279C15.4805 3.60526 15.5858 3.35095 15.5858 3.08579C15.5858 2.82062 15.4805 2.56631 15.293 2.37879L14.207 1.29279C14.0195 1.10532 13.7652 1 13.5 1C13.2348 1 12.9805 1.10532 12.793 1.29279L11.59 2.49579Z" stroke="#6D6969"/>
</svg>
