<svg width="96" height="96" viewBox="0 0 96 96" fill="none" xmlns="http://www.w3.org/2000/svg">
    <circle cx="48" cy="48" r="48" fill="#F80A0A"/>
    <path d="M61.7674 44.0432C65.165 45.3724 66.6993 49.1949 65.7847 53.1531C65.6226 53.8555 65.1986 54.4697 64.5994 54.8705C64.0001 55.2714 63.2706 55.4286 62.5594 55.3102L59.0554 54.7274C58.4916 54.6337 57.9687 54.3738 57.5537 53.9808C57.1388 53.5878 56.8507 53.0798 56.7265 52.522L55.6391 47.61C55.5852 47.3677 55.4695 47.1435 55.3031 46.9593C55.1368 46.7751 54.9255 46.6371 54.69 46.5588L54.5437 46.514L54.1764 46.4046C52.3773 45.8987 50.5182 45.6372 48.6493 45.6271C46.651 45.6379 44.6646 45.9361 42.7513 46.5127L42.6046 46.5604C42.3696 46.6387 42.1588 46.7764 41.9929 46.9603C41.827 47.1441 41.7115 47.3679 41.6578 47.6096L40.5679 52.5194C40.4436 53.0771 40.1555 53.5849 39.7405 53.9777C39.3255 54.3705 38.8027 54.6304 38.239 54.724L34.7173 55.3129C33.2509 55.5588 31.8482 54.6166 31.515 53.1694C30.6005 49.2081 32.1532 45.3833 35.5544 44.0627C39.7332 42.4494 44.1732 41.6191 48.6526 41.613C53.1385 41.5897 57.587 42.4158 61.7674 44.0432ZM53.0237 49.0665L53.9302 53.139C54.178 54.255 54.7538 55.2714 55.5834 56.0577C56.4131 56.8441 57.4589 57.3646 58.5865 57.5523L62.0891 58.1376C63.5196 58.3754 64.9869 58.0589 66.1923 57.2528C67.3977 56.4466 68.2506 55.2114 68.5772 53.7985C69.7112 48.8811 67.901 43.3631 62.8103 41.3709C59.2558 39.9809 54.4382 38.7257 48.6397 38.7451C43.8091 38.7528 39.0212 39.6494 34.515 41.39C29.4145 43.3717 27.5804 48.8881 28.7157 53.8145C29.04 55.2238 29.8898 56.4562 31.0917 57.2602C32.2936 58.0643 33.7571 58.3794 35.1834 58.1412L38.7076 57.5538C39.8344 57.3655 40.8793 56.8449 41.7083 56.0589C42.5373 55.2728 43.1127 54.257 43.3605 53.1418L44.2667 49.0662C45.699 48.7058 47.1686 48.5142 48.6454 48.4954C50.1215 48.5057 51.5907 48.6979 53.0197 49.0675" fill="#FFFCFC"/>
</svg>
