<svg width="24" height="27" viewBox="0 0 24 27" fill="none" xmlns="http://www.w3.org/2000/svg">
<path d="M5.35 14.625C6.54 14.625 6.77 15.75 8.68 15.75C10.63 15.75 10.77 14.625 12.01 14.625C13.2 14.625 13.43 15.75 15.34 15.75C17.29 15.75 17.43 14.625 18.67 14.625C19.6 14.625 19.72 15.1312 20.68 15.5138C21.31 15.7613 21.98 15.2438 21.98 14.49C21.98 13.905 21.75 13.5562 21.34 13.3987C20.74 13.1512 20.19 12.3863 18.65 12.3863C16.7 12.3863 16.56 13.5113 15.32 13.5113C14.13 13.5113 13.9 12.3863 11.99 12.3863C10.04 12.3863 9.9 13.5113 8.66 13.5113C7.47 13.5113 7.24 12.3863 5.33 12.3863C3.79 12.3863 3.2 13.185 2.65 13.41C2.24 13.5563 2 13.8938 2 14.5013C2 15.255 2.66 15.7725 3.29 15.525C4.35 15.12 4.39 14.625 5.35 14.625ZM18.67 16.875C16.72 16.875 16.58 18 15.34 18C14.15 18 13.92 16.875 12.01 16.875C10.06 16.875 9.91 18 8.67 18C7.43 18 7.29 16.875 5.34 16.875C3.81 16.875 3.19 17.6737 2.65 17.8988C2.24 18.0562 2 18.405 2 19.0012C2 19.755 2.66 20.2725 3.3 20.025C4.32 19.62 4.38 19.125 5.34 19.125C6.58 19.125 6.72 20.25 8.67 20.25C10.62 20.25 10.77 19.125 12.01 19.125C13.2 19.125 13.43 20.25 15.34 20.25C17.28 20.25 17.43 19.125 18.67 19.125C19.61 19.125 19.73 19.6425 20.7 20.025C21.33 20.2725 22 19.755 22 19.0012C22 18.405 21.76 18.0675 21.35 17.8988C20.82 17.685 20.21 16.875 18.67 16.875ZM5.35 10.125C6.54 10.125 6.77 11.25 8.68 11.25C10.63 11.25 10.77 10.125 12.01 10.125C13.2 10.125 13.43 11.25 15.34 11.25C17.29 11.25 17.43 10.125 18.67 10.125C19.6 10.125 19.72 10.6312 20.68 11.0138C21.31 11.2613 21.98 10.7438 21.98 9.99C21.98 9.405 21.75 9.05625 21.34 8.89875C20.74 8.64 20.19 7.875 18.65 7.875C16.7 7.875 16.56 9 15.32 9C14.13 9 13.9 7.875 11.99 7.875C10.04 7.875 9.9 9 8.66 9C7.47 9 7.24 7.875 5.33 7.875C3.79 7.875 3.2 8.67375 2.65 8.89875C2.24 9.05625 2 9.39375 2 10.0013C2 10.755 2.66 11.2725 3.29 11.025C4.35 10.62 4.39 10.125 5.35 10.125Z" fill="#6D6969"/>
</svg>
