<svg width="26" height="26" viewBox="0 0 26 26" fill="none" xmlns="http://www.w3.org/2000/svg">
<path fill-rule="evenodd" clip-rule="evenodd" d="M10.9686 1.625C8.49049 1.625 6.11387 2.60943 4.36158 4.36172C2.60928 6.11401 1.62486 8.49063 1.62486 10.9688V11.8105C1.13083 12.0958 0.720597 12.506 0.435376 13.0001C0.150156 13.4941 0 14.0545 0 14.625C0 15.1955 0.150156 15.7559 0.435376 16.2499C0.720597 16.744 1.13083 17.1542 1.62486 17.4395V19.9062C1.62486 21.0914 2.09567 22.2281 2.93372 23.0661C3.77178 23.9042 4.90842 24.375 6.09361 24.375H19.9061C21.0913 24.375 22.2279 23.9042 23.066 23.0661C23.904 22.2281 24.3749 21.0914 24.3749 19.9062V17.4395C24.8689 17.1542 25.2791 16.744 25.5643 16.2499C25.8496 15.7559 25.9997 15.1955 25.9997 14.625C25.9997 14.0545 25.8496 13.4941 25.5643 13.0001C25.2791 12.506 24.8689 12.0958 24.3749 11.8105V10.9688C24.3749 8.49063 23.3904 6.11401 21.6381 4.36172C19.8858 2.60943 17.5092 1.625 15.0311 1.625H10.9686ZM22.7499 13.8125H3.24986C3.03437 13.8125 2.82771 13.8981 2.67533 14.0505C2.52296 14.2028 2.43736 14.4095 2.43736 14.625C2.43736 14.8405 2.52296 15.0472 2.67533 15.1995C2.82771 15.3519 3.03437 15.4375 3.24986 15.4375H22.7499C22.9653 15.4375 23.172 15.3519 23.3244 15.1995C23.4768 15.0472 23.5624 14.8405 23.5624 14.625C23.5624 14.4095 23.4768 14.2028 23.3244 14.0505C23.172 13.8981 22.9653 13.8125 22.7499 13.8125ZM21.9374 11.375V10.9688C21.9374 9.1371 21.2097 7.38047 19.9146 6.08529C18.6194 4.79012 16.8628 4.0625 15.0311 4.0625H10.9686C9.13695 4.0625 7.38032 4.79012 6.08515 6.08529C4.78998 7.38047 4.06236 9.1371 4.06236 10.9688V11.375H21.9374ZM17.8749 17.875H21.9374V19.9062C21.9374 21.0275 21.0274 21.9375 19.9061 21.9375H6.09361C4.97236 21.9375 4.06236 21.0275 4.06236 19.9062V17.875H14.6249L16.2499 19.5L17.8749 17.875Z" fill="#6D6969"/>
</svg>
