<svg width="24" height="24" viewBox="0 0 24 24" fill="none" xmlns="http://www.w3.org/2000/svg">
<path d="M11.9999 4.00587C13.3054 4.00398 14.5599 4.51278 15.4953 5.42353C16.4306 6.33427 16.9727 7.57474 17.0056 8.87983C17.0385 10.1849 16.5596 11.4511 15.6714 12.4079C14.7831 13.3646 13.5559 13.936 12.2519 13.9999H11.7479C10.444 13.936 9.21675 13.3646 8.32848 12.4079C7.44022 11.4511 6.96137 10.1849 6.99428 8.87983C7.02719 7.57474 7.56924 6.33427 8.50459 5.42353C9.43995 4.51278 10.6944 4.00398 11.9999 4.00587ZM12.9999 15.9359C14.7489 15.6796 16.3362 14.7713 17.4433 13.3933C18.5504 12.0153 19.0953 10.2696 18.9688 8.50649C18.8422 6.74339 18.0535 5.0934 16.7609 3.88767C15.4683 2.68194 13.7676 2.0097 11.9999 2.00587C10.228 2.00268 8.5208 2.67159 7.22269 3.87767C5.92457 5.08376 5.13216 6.73726 5.00528 8.50464C4.87841 10.272 5.42651 12.0217 6.53904 13.4009C7.65156 14.78 9.24571 15.6859 10.9999 15.9359V16.9999H7.99992V18.9999H10.9999V21.9999H12.9999V18.9999H15.9999V16.9999H12.9999V15.9359Z" fill="#6D6969"/>
</svg>
