<svg width="31" height="31" viewBox="0 0 31 31" fill="none" xmlns="http://www.w3.org/2000/svg">
<path d="M30.4614 12.3681H29.2225V12.3042H15.3803V18.4563H24.0724C22.8043 22.0376 19.3968 24.6084 15.3803 24.6084C10.284 24.6084 6.15211 20.4765 6.15211 15.3803C6.15211 10.284 10.284 6.15211 15.3803 6.15211C17.7327 6.15211 19.8729 7.03955 21.5024 8.48915L25.8527 4.13883C23.1058 1.57879 19.4314 0 15.3803 0C6.88652 0 0 6.88652 0 15.3803C0 23.874 6.88652 30.7606 15.3803 30.7606C23.874 30.7606 30.7606 23.874 30.7606 15.3803C30.7606 14.349 30.6544 13.3424 30.4614 12.3681Z" fill="#FFC107"/>
<path d="M1.77349 8.22153L6.82668 11.9274C8.19399 8.54221 11.5054 6.15211 15.3804 6.15211C17.7328 6.15211 19.873 7.03955 21.5026 8.48915L25.8529 4.13883C23.1059 1.57879 19.4316 0 15.3804 0C9.47286 0 4.34969 3.33521 1.77349 8.22153Z" fill="#FF3D00"/>
<path d="M15.3803 30.7606C19.353 30.7606 22.9628 29.2402 25.692 26.7678L20.9318 22.7397C19.3357 23.9535 17.3855 24.61 15.3803 24.6084C11.3799 24.6084 7.98314 22.0576 6.7035 18.4979L1.68799 22.3621C4.23343 27.3431 9.40275 30.7606 15.3803 30.7606Z" fill="#4CAF50"/>
<path d="M30.4614 12.368H29.2225V12.3042H15.3803V18.4563H24.0724C23.4659 20.1608 22.3732 21.6502 20.9295 22.7405L20.9318 22.739L25.692 26.7671C25.3552 27.0731 30.7606 23.0704 30.7606 15.3803C30.7606 14.349 30.6544 13.3424 30.4614 12.368Z" fill="#1976D2"/>
</svg>
