<svg width="30" height="30" viewBox="0 0 30 30" fill="none" xmlns="http://www.w3.org/2000/svg">
<path d="M20 27.5C17.9167 27.5 16.1458 26.7708 14.6875 25.3125C13.2292 23.8542 12.5 22.0833 12.5 20C12.5 17.9167 13.2292 16.1458 14.6875 14.6875C16.1458 13.2292 17.9167 12.5 20 12.5C22.0833 12.5 23.8542 13.2292 25.3125 14.6875C26.7708 16.1458 27.5 17.9167 27.5 20C27.5 22.0833 26.7708 23.8542 25.3125 25.3125C23.8542 26.7708 22.0833 27.5 20 27.5ZM20 25C21.375 25 22.5521 24.5104 23.5312 23.5312C24.5104 22.5521 25 21.375 25 20C25 18.625 24.5104 17.4479 23.5312 16.4688C22.5521 15.4896 21.375 15 20 15C18.625 15 17.4479 15.4896 16.4688 16.4688C15.4896 17.4479 15 18.625 15 20C15 21.375 15.4896 22.5521 16.4688 23.5312C17.4479 24.5104 18.625 25 20 25ZM5 25C4.3125 25 3.72417 24.7554 3.235 24.2663C2.74583 23.7771 2.50083 23.1883 2.5 22.5V13C2.5 12.8333 2.51583 12.6667 2.5475 12.5C2.57917 12.3333 2.62583 12.1667 2.6875 12L5.1875 6.25H5C4.64583 6.25 4.34917 6.13 4.11 5.89C3.87083 5.65 3.75083 5.35333 3.75 5V3.75C3.75 3.39583 3.87 3.09917 4.11 2.86C4.35 2.62083 4.64667 2.50083 5 2.5H13.75C14.1042 2.5 14.4013 2.62 14.6413 2.86C14.8813 3.1 15.0008 3.39667 15 3.75V5C15 5.35417 14.88 5.65125 14.64 5.89125C14.4 6.13125 14.1033 6.25083 13.75 6.25H13.5625L15.625 11C15.2292 11.2083 14.8542 11.4271 14.5 11.6562C14.1458 11.8854 13.8125 12.1458 13.5 12.4375L10.875 6.25H7.875L5 13V22.5H10.3125C10.4167 22.9375 10.5571 23.37 10.7337 23.7975C10.9104 24.225 11.1242 24.6258 11.375 25H5ZM20 11.25C19.125 11.25 18.3854 10.9479 17.7812 10.3437C17.1771 9.73958 16.875 9 16.875 8.125C16.875 7.25 17.1771 6.51042 17.7812 5.90625C18.3854 5.30208 19.125 5 20 5V11.25ZM20 11.25C20 10.375 20.3021 9.63542 20.9062 9.03125C21.5104 8.42708 22.25 8.125 23.125 8.125C24 8.125 24.7396 8.42708 25.3438 9.03125C25.9479 9.63542 26.25 10.375 26.25 11.25H20Z" fill="#6D6969"/>
</svg>
