<svg width="33" height="33" viewBox="0 0 33 33" fill="none" xmlns="http://www.w3.org/2000/svg">
<g clip-path="url(#clip0_391_1800)">
<path d="M16.5 4.125C13.2179 4.125 10.0703 5.42879 7.74955 7.74955C5.42879 10.0703 4.125 13.2179 4.125 16.5V24.75C4.125 25.844 4.5596 26.8932 5.33318 27.6668C6.10677 28.4404 7.15598 28.875 8.25 28.875H10.1502C10.6611 28.875 11.1618 28.7327 11.5962 28.4641C12.0307 28.1955 12.3818 27.8112 12.6101 27.3542L12.8507 26.873C12.406 26.5625 11.99 26.2128 11.6078 25.828C10.0966 24.3073 8.9375 22.0742 8.9375 19.25C8.9375 18.2394 9.108 17.2343 9.41738 16.2841C9.55487 15.862 9.93575 15.8125 10.3125 15.8125C12.6363 15.8125 14.6919 14.6589 15.9376 12.8906C16.0011 12.8004 16.0853 12.7268 16.1832 12.6759C16.281 12.6251 16.3897 12.5986 16.5 12.5986C16.6103 12.5986 16.719 12.6251 16.8168 12.6759C16.9147 12.7268 16.9989 12.8004 17.0624 12.8906C17.6962 13.7938 18.5383 14.531 19.5175 15.0396C20.4967 15.5482 21.5841 15.8134 22.6875 15.8125C23.0642 15.8125 23.4465 15.862 23.5826 16.2841C23.8968 17.2415 24.0588 18.2424 24.0625 19.25C24.0625 22.0756 22.9034 24.3073 21.3923 25.828C21.0004 26.2226 20.581 26.5719 20.1493 26.873L20.3899 27.3542C20.6182 27.8112 20.9693 28.1955 21.4038 28.4641C21.8382 28.7327 22.3389 28.875 22.8498 28.875H24.75C25.844 28.875 26.8932 28.4404 27.6668 27.6668C28.4404 26.8932 28.875 25.844 28.875 24.75V16.5C28.875 13.2179 27.5712 10.0703 25.2504 7.74955C22.9297 5.42879 19.7821 4.125 16.5 4.125Z" fill="#6D6969"/>
</g>
<defs>
<clipPath id="clip0_391_1800">
<rect width="33" height="33" fill="white"/>
</clipPath>
</defs>
</svg>
