<svg width="26" height="26" viewBox="0 0 26 26" fill="none" xmlns="http://www.w3.org/2000/svg">
<path d="M23.5194 21.9807L21.981 23.519C21.7781 23.7208 21.5035 23.834 21.2173 23.834C20.9311 23.834 20.6565 23.7208 20.4535 23.519L7.58354 10.6707C7.23128 10.7729 6.86695 10.8275 6.50021 10.8332C5.81045 10.8327 5.13078 10.6675 4.5177 10.3515C3.90461 10.0354 3.37584 9.57758 2.97533 9.01602C2.57481 8.45445 2.31414 7.8054 2.21498 7.12281C2.11582 6.44022 2.18104 5.74381 2.40521 5.0915L5.15687 7.84317L5.73104 7.269L7.26937 5.73067L7.84354 5.1565L5.09187 2.40484C5.74419 2.18067 6.44059 2.11545 7.12318 2.21461C7.80577 2.31377 8.45482 2.57444 9.01639 2.97495C9.57795 3.37547 10.0358 3.90424 10.3519 4.51733C10.6679 5.13041 10.833 5.81008 10.8335 6.49984C10.8279 6.86658 10.7732 7.23091 10.671 7.58317L23.5194 20.4532C23.7211 20.6561 23.8344 20.9307 23.8344 21.2169C23.8344 21.5031 23.7211 21.7777 23.5194 21.9807ZM2.48104 20.4532C2.27927 20.6561 2.16602 20.9307 2.16602 21.2169C2.16602 21.5031 2.27927 21.7777 2.48104 21.9807L4.01937 23.519C4.22235 23.7208 4.49692 23.834 4.78312 23.834C5.06933 23.834 5.3439 23.7208 5.54687 23.519L11.4727 17.604L8.40687 14.5382M21.6669 2.1665L17.3335 4.33317V6.49984L14.9827 8.85067L17.1494 11.0173L19.5002 8.6665H21.6669L23.8335 4.33317L21.6669 2.1665Z" fill="#6D6969"/>
</svg>
