<svg width="20" height="21" viewBox="0 0 20 21" fill="none" xmlns="http://www.w3.org/2000/svg">
<path d="M9.0489 0.292634C8.65838 -0.0978909 8.02521 -0.0978909 7.63469 0.292634L1.27073 6.65659C0.880205 7.04712 0.880205 7.68028 1.27073 8.07081C1.66125 8.46133 2.29442 8.46133 2.68494 8.07081L8.3418 2.41395L13.9987 8.07081C14.3892 8.46133 15.0223 8.46133 15.4129 8.07081C15.8034 7.68028 15.8034 7.04712 15.4129 6.65659L9.0489 0.292634ZM9.3418 13.3691L9.3418 0.999741L7.3418 0.999741L7.3418 13.3691L9.3418 13.3691Z" fill="black"/>
<path d="M10.9501 20.7074C11.3406 21.0979 11.9738 21.0979 12.3643 20.7074L18.7283 14.3434C19.1188 13.9529 19.1188 13.3197 18.7283 12.9292C18.3378 12.5387 17.7046 12.5387 17.3141 12.9292L11.6572 18.586L6.00037 12.9292C5.60985 12.5387 4.97668 12.5387 4.58616 12.9292C4.19563 13.3197 4.19563 13.9529 4.58616 14.3434L10.9501 20.7074ZM10.6572 7.63086L10.6572 20.0003L12.6572 20.0003L12.6572 7.63086L10.6572 7.63086Z" fill="black"/>
</svg>
