<svg width="19" height="19" viewBox="0 0 19 19" fill="none" xmlns="http://www.w3.org/2000/svg">
<path d="M1.58398 4.75016C1.58398 3.91031 1.91761 3.10486 2.51148 2.51099C3.10534 1.91713 3.9108 1.5835 4.75065 1.5835H14.2507C15.0905 1.5835 15.896 1.91713 16.4898 2.51099C17.0837 3.10486 17.4173 3.91031 17.4173 4.75016V14.2502C17.4173 15.09 17.0837 15.8955 16.4898 16.4893C15.896 17.0832 15.0905 17.4168 14.2507 17.4168H4.75065C3.9108 17.4168 3.10534 17.0832 2.51148 16.4893C1.91761 15.8955 1.58398 15.09 1.58398 14.2502V4.75016Z" stroke="black" stroke-linecap="round" stroke-linejoin="round"/>
<path d="M6.72917 8.70833C7.82223 8.70833 8.70833 7.82223 8.70833 6.72917C8.70833 5.6361 7.82223 4.75 6.72917 4.75C5.6361 4.75 4.75 5.6361 4.75 6.72917C4.75 7.82223 5.6361 8.70833 6.72917 8.70833Z" stroke="black" stroke-linecap="round" stroke-linejoin="round"/>
<path d="M11.4998 9.99178L4.75 17.4168H14.3553C15.1672 17.4168 15.9459 17.0943 16.52 16.5202C17.0941 15.946 17.4167 15.1674 17.4167 14.3554V14.2502C17.4167 13.8812 17.2781 13.7395 17.0288 13.4664L13.8383 9.98703C13.6896 9.82483 13.5088 9.6954 13.3073 9.60701C13.1058 9.51861 12.888 9.47319 12.668 9.47364C12.448 9.47408 12.2304 9.52039 12.0293 9.6096C11.8281 9.69882 11.6478 9.82898 11.4998 9.99178Z" stroke="black" stroke-linecap="round" stroke-linejoin="round"/>
</svg>
