<svg width="206" height="288" viewBox="0 0 206 288" fill="none" xmlns="http://www.w3.org/2000/svg">
    <path d="M178.576 125.174C182.055 116.658 176.508 106.821 178.489 97.8324C178.7 96.8599 179.678 95.6755 180.421 96.3363C180.693 96.5732 180.755 96.9597 180.805 97.3212C181.25 100.65 181.684 103.979 182.129 107.32C182.748 103.293 183.281 99.2412 184.382 95.3015C184.94 93.3067 185.633 91.3368 186.586 89.4916C187.131 88.4319 188.381 85.3649 189.904 86.5493C191.378 87.6963 190.177 91.1498 189.83 92.4963C188.778 96.7353 187.713 100.987 186.661 105.226C188.728 99.8895 190.944 94.6158 193.297 89.4043C193.891 88.0828 194.807 85.5269 196.181 84.8537C199.276 83.3576 197.63 88.9056 197.234 90.115C195.376 95.7379 193.532 101.373 191.675 106.996C193.346 103.368 194.993 99.6776 197.147 96.3114C198.298 94.5036 199.053 92.4714 200.428 90.8007C200.836 90.302 201.876 89.0927 202.669 89.4916C203.176 89.741 203.176 90.863 203.164 91.3742C203.151 92.3093 202.805 93.1945 202.396 94.0173C200.168 98.5431 198.447 103.268 195.797 107.594C197.147 105.4 198.434 103.144 200.093 101.161C200.799 100.313 204.773 96.0371 205.826 97.7077C206.643 98.9919 204.662 101.635 203.981 102.583C202.891 104.079 201.554 105.438 200.675 107.083C200.651 107.133 200.613 107.196 200.589 107.245C198.682 111.023 199.4 115.536 198.917 119.738C198.249 125.585 195.092 131.096 190.399 134.599" fill="#DD7B66"/>
    <path d="M80.4225 40.2451C83.0101 37.6643 84.3719 33.8991 84.0624 30.2461C83.8891 28.2015 82.9358 25.9324 80.9673 25.3963C83.6167 21.9802 83.9758 17.0555 82.2796 13.0659C80.5835 9.07626 77.0674 6.03419 73.0685 4.42588C70.9638 3.59055 68.6734 3.11678 66.4325 3.44094C64.1916 3.7651 62.025 4.96198 60.8365 6.89445C59.5118 3.56562 56.3176 1.18432 52.8511 0.361459C49.3845 -0.461398 45.6827 0.149511 42.4019 1.54587C38.6134 3.15419 35.1964 5.87211 33.2774 9.5251C31.3584 13.1905 31.1232 17.8285 33.1412 21.4316C32.6584 20.5713 28.2633 22.03 27.57 22.4165C23.831 24.4612 23.2987 31.4804 24.2767 35.0835C25.4158 39.2726 29.068 43.2996 33.4384 44.0976C32.4974 47.1521 32.2622 50.5183 33.3393 53.523C35.1592 58.5848 40.4581 60.4924 45.4475 60.3428C48.7902 60.243 52.1206 58.4352 53.7548 55.4804" fill="black"/>
    <path d="M135.132 81.6491C127.419 82.6839 119.694 83.5317 111.944 84.1925C110.322 84.3297 110.309 86.898 111.944 86.7608C119.694 86.0876 127.419 85.2398 135.132 84.2175C136.742 84.0055 136.754 81.4372 135.132 81.6491Z" fill="#7F4100"/>
    <path d="M46.8236 85.365C46.217 78.9193 45.6103 72.4237 46.2541 65.978C47.0836 57.6746 53.8805 36.6669 65.9268 43.7359C66.2982 40.9682 69.3562 39.5344 72.018 38.7739C85.6862 34.884 100.555 35.445 113.901 40.3572C118.148 41.9157 123.174 44.3344 125.812 48.2243C128.87 52.725 130.504 60.2056 131.333 65.5167C131.915 69.2695 131.209 73.6954 130.776 77.4856C130.392 80.8892 129.476 83.9687 128.411 87.1853C127.582 89.6663 127.471 91.9479 125.997 94.1921" fill="black"/>
    <path d="M187.651 121.122C183.108 119.975 181.214 119.601 176.769 119.551L158.483 173.698L130.726 148.975C124.176 143.14 115.733 139.911 106.992 139.886L96.1715 139.861L94.6859 114.813L78.715 117.494L74.7408 142.454C74.7408 142.454 50.9082 139.661 37.0173 159.447C23.1139 179.233 -3.61571 207.846 0.407973 233.953C4.43165 260.06 42.9971 270.496 42.9971 270.496L51.4654 248.341L30.2946 226.261L56.0214 195.217C56.0214 195.217 61.9641 212.571 66.5573 226.61C66.5573 226.61 48.8036 264.436 47.4293 278.487C47.4293 278.487 136.173 308.297 152.961 262.317L128.151 216.91C128.151 216.91 134.514 207.871 137.275 199.555C137.275 199.555 168.004 220.064 176.88 214.828C184.692 210.203 195.984 153.837 198.645 124.738C195.08 123.291 191.428 122.07 187.676 121.122H187.651Z" fill="#DD7B66"/>
    <path d="M124.263 85.1275C125.34 83.943 127.222 83.6937 128.695 84.3295C130.168 84.9654 131.22 86.3742 131.716 87.8952C132.211 89.4288 132.211 91.0869 132 92.6828C131.629 95.5254 130.589 98.3181 128.831 100.562C127.061 102.806 124.535 104.49 121.725 105.013" fill="#D16F5E"/>
    <path d="M119.669 115.961C115.014 122.568 106.088 124.239 98.0527 124.788C90.9091 125.274 83.617 125.299 76.7582 123.242C64.3652 119.539 59.6235 106.51 58.3483 94.7159C56.8998 81.3133 57.5064 64.507 67.7823 54.5829C79.1228 43.6488 103.327 41.6291 116.302 51.4785C131.294 62.8488 124.436 86.213 123.433 101.835C123.123 106.722 122.566 111.834 119.669 115.948V115.961Z" fill="#DD7B66"/>
    <path d="M103.834 71.6379C101.123 74.7049 99.7363 78.2831 99.7363 82.3973C99.7363 84.1802 100.281 85.8633 101.111 87.4218C101.878 88.8555 103.166 89.8031 103.735 91.3864C104.59 93.7303 102.609 96.149 100.578 96.8348C99.7982 97.0966 100.133 98.3309 100.912 98.069C103.97 97.0342 105.493 94.2041 104.961 91.0498C104.528 88.5064 101.878 86.7735 101.197 84.1927C100.133 80.0909 102.051 75.5651 104.726 72.548C105.27 71.9371 104.379 71.027 103.822 71.6379H103.834Z" fill="#B75A4B"/>
    <path d="M85.1157 90.252C86.2508 90.252 87.1709 88.3263 87.1709 85.9507C87.1709 83.5752 86.2508 81.6494 85.1157 81.6494C83.9807 81.6494 83.0605 83.5752 83.0605 85.9507C83.0605 88.3263 83.9807 90.252 85.1157 90.252Z" fill="#AA4F43"/>
    <path d="M112.427 86.0757C112.427 88.457 111.511 90.377 110.372 90.377C109.233 90.377 108.316 88.457 108.316 86.0757C108.316 83.6944 109.233 81.7744 110.372 81.7744C111.511 81.7744 112.427 83.6944 112.427 86.0757Z" fill="#AA4F43"/>
    <path d="M89.6355 67.9721C90.0688 70.0792 87.2956 72.448 83.4329 73.2459C79.5701 74.0563 76.0912 72.9966 75.6579 70.8771C75.2246 68.7576 77.9978 66.4012 81.8605 65.6033C85.7233 64.7929 89.2022 65.8527 89.6355 67.9721Z" fill="#AA4F43"/>
    <path d="M120.536 75.1536C119.62 77.0986 115.992 77.3105 112.426 75.6149C108.861 73.9193 106.719 70.9645 107.623 69.0196C108.539 67.0747 112.166 66.8627 115.732 68.5583C119.298 70.2539 121.439 73.2087 120.536 75.1536Z" fill="#AA4F43"/>
    <path d="M93.3612 99.6396C92.7298 100.861 92.5565 102.32 92.9279 103.654C93.3117 105.038 94.2774 106.26 95.5278 106.958C96.0354 107.245 96.5925 107.444 97.1744 107.507C98.7096 107.681 100.232 106.858 101.26 105.711C101.99 104.901 102.51 103.928 102.956 102.931C99.6134 102.27 96.3821 101.273 93.3488 99.6396H93.3612Z" fill="white"/>
    <path d="M56.8749 87.7711C62.5205 87.1477 66.9775 82.435 69.466 77.2859C74.121 67.6236 73.2792 55.5051 67.3241 46.5908C59.4006 49.1841 53.7055 56.7519 51.8856 64.943C50.078 73.1342 51.737 81.7867 55.0426 89.4916" fill="black"/>
    <path d="M66.8418 73.6331C69.0208 74.032 71.2121 74.4185 73.3911 74.8175C73.7625 74.8798 74.1835 74.9422 74.5054 74.7552C74.8396 74.5681 75.0006 74.1692 75.1368 73.8076C76.8824 69.1074 78.43 64.3323 79.7547 59.5074C79.5071 64.8185 79.2719 70.1297 79.0243 75.4409C85.9821 76.7874 93.101 77.2985 100.183 76.9744C100.591 76.9619 101.025 76.9245 101.346 76.6627C101.693 76.3884 101.817 75.9146 101.916 75.4783C102.956 70.9276 104.008 66.3645 105.048 61.8139C105.42 66.5391 105.791 71.2642 106.15 75.9894C112.897 76.9744 119.756 77.1489 126.541 76.5131C128.918 69.4939 127.531 61.7017 124.808 54.8071C123.656 51.8772 122.208 48.9723 119.892 46.8404C116.215 43.4492 110.966 42.5515 106.026 41.8658C98.1151 40.7562 90.0553 39.8087 82.1566 40.9806C74.2454 42.1526 66.3961 45.7058 61.5801 52.1266" fill="black"/>
    <path d="M187.651 121.122C183.108 119.975 181.214 119.601 176.769 119.551L158.483 173.697L130.726 148.974C129.97 148.301 129.19 147.665 128.386 147.067C124.077 150.882 118.84 153.799 113.529 156.056C90.4641 165.855 63.3631 165.369 40.5333 155.121C39.3077 156.43 38.1315 157.851 37.0173 159.447C23.1139 179.233 -3.61571 207.846 0.407973 233.953C4.43165 260.06 42.9971 270.495 42.9971 270.495L51.4654 248.34L30.2946 226.26L56.0214 195.216C56.0214 195.216 61.9641 212.571 66.5573 226.609C66.5573 226.609 48.8036 264.436 47.4293 278.487C47.4293 278.487 136.173 308.297 152.961 262.316L128.151 216.91C128.151 216.91 134.514 207.871 137.275 199.555C137.275 199.555 168.004 220.064 176.88 214.828C184.692 210.202 195.984 153.837 198.645 124.737C195.08 123.291 191.428 122.069 187.676 121.122H187.651Z" fill="#7F4100"/>
    <path d="M127.235 162.476C130.541 159.933 133.376 156.891 135.914 153.599L130.726 148.974C129.971 148.301 129.191 147.665 128.386 147.066C124.078 150.881 118.841 153.799 113.53 156.055C90.4649 165.855 63.3638 165.369 40.5341 155.12C39.3084 156.43 38.1323 157.851 37.018 159.447C36.3742 160.369 35.6933 161.304 35 162.264C56.8888 174.782 83.7794 178.347 108.045 171.503C114.892 169.57 121.602 166.815 127.247 162.476H127.235Z" fill="#EA8F34"/>
    <path d="M59.1918 203.993C59.5756 203.831 57.9413 199.081 56.1214 193.172C54.2891 187.275 52.952 182.425 52.5434 182.512C52.1596 182.587 52.8529 187.636 54.7224 193.608C56.5671 199.592 58.8451 204.143 59.2042 203.981L59.1918 203.993Z" fill="#D6893C"/>
    <path d="M131.22 209.903C131.295 210.04 133.721 208.307 135.653 204.093C136.643 202.011 137.336 199.355 137.955 196.45C138.537 193.52 139.107 190.216 138.76 186.651C138.327 183.048 136.816 179.993 135.355 177.4C133.87 174.794 132.297 172.612 131.072 170.767C129.834 168.922 128.992 167.363 128.509 166.229C128.026 165.094 127.828 164.421 127.717 164.446C127.63 164.458 127.63 165.182 127.964 166.416C128.298 167.65 129.041 169.371 130.18 171.316C131.319 173.273 132.78 175.48 134.167 178.061C135.529 180.629 136.915 183.571 137.299 186.813C137.621 190.079 137.126 193.308 136.618 196.188C136.073 199.081 135.504 201.662 134.687 203.694C133.09 207.808 131.022 209.753 131.208 209.915L131.22 209.903Z" fill="#D6893C"/>
    <g style="mix-blend-mode:multiply" opacity="0.14">
        <path d="M119.645 101.473C119.992 104.316 117.181 107.021 113.343 107.495C109.505 107.969 106.126 106.049 105.779 103.206C105.432 100.363 108.243 97.6579 112.081 97.1841C115.906 96.7104 119.298 98.6304 119.645 101.473Z" fill="#E2409D"/>
    </g>
    <g style="mix-blend-mode:multiply" opacity="0.14">
        <path d="M87.8268 102.782C87.4678 105.624 84.0631 107.532 80.2375 107.046C76.4119 106.547 73.6016 103.841 73.9606 100.999C74.3196 98.1562 77.7243 96.2486 81.5499 96.7349C85.3755 97.2336 88.1859 99.939 87.8268 102.782Z" fill="#E2409D"/>
    </g>
    <path d="M60.9495 91.3745C61.16 85.0036 53.1126 81.2758 48.0613 84.4177C44.83 86.4374 43.1339 90.5143 43.5424 94.3294C43.951 98.1444 46.2414 101.598 49.3242 103.855C53.5831 106.971 59.1419 109.054 64.3789 107.258" fill="#DD7B66"/>
    <path d="M49.1628 90.3145C56.6282 88.3072 58.6215 97.5207 58.5225 102.919C58.5101 103.742 59.7853 103.742 59.7977 102.919C59.8596 99.3784 59.6615 95.1768 57.3216 92.2844C55.2045 89.6662 52.1589 88.1825 48.8161 89.0802C48.0238 89.2922 48.358 90.5264 49.1504 90.3145H49.1628Z" fill="#B75A4B"/>
    <path d="M53.0388 90.2525C50.9712 94.2795 52.2093 99.1917 55.8987 101.772C56.5796 102.246 57.211 101.137 56.5425 100.663C53.4349 98.506 52.4074 94.2795 54.1406 90.9008C54.512 90.1652 53.4226 89.5169 53.0388 90.2525Z" fill="#B75A4B"/>
    <path d="M79.817 102.358C69.9126 102.358 61.8652 94.2416 61.8652 84.2801C61.8652 74.3185 69.925 66.2021 79.817 66.2021C89.7091 66.2021 97.7812 74.3185 97.7812 84.2801C97.7812 94.2416 89.7215 102.358 79.817 102.358ZM79.817 68.6084C71.2373 68.6084 64.2547 75.6401 64.2547 84.2801C64.2547 92.9201 71.2373 99.9518 79.817 99.9518C88.3968 99.9518 95.3794 92.9201 95.3794 84.2801C95.3794 75.6401 88.3968 68.6084 79.817 68.6084Z" fill="#7F4100"/>
    <path d="M119.695 104.153C110.162 104.153 102.412 96.3484 102.412 86.7484C102.412 77.1484 110.162 69.3438 119.695 69.3438C129.228 69.3438 136.979 77.1484 136.979 86.7484C136.979 96.3484 129.228 104.153 119.695 104.153ZM119.695 71.6627C111.438 71.6627 104.715 78.4326 104.715 86.7484C104.715 95.0643 111.438 101.834 119.695 101.834C127.953 101.834 134.676 95.0643 134.676 86.7484C134.676 78.4326 127.953 71.6627 119.695 71.6627Z" fill="#7F4100"/>
    <path d="M104.801 83.3076C104.096 81.986 102.882 81.0634 101.322 80.8515C98.933 80.5149 97.3111 82.0858 95.9616 83.8437C94.9588 85.1528 97.1749 86.4245 98.1654 85.1403C98.7844 84.3299 99.4901 83.4821 100.555 83.3575C101.706 83.2328 102.536 84.093 102.808 85.1278C102.944 85.6639 103.316 85.9258 103.737 86.0006C103.848 85.0281 104.257 84.0556 104.814 83.2951L104.801 83.3076Z" fill="#7F4100"/>
    <path d="M63.97 76.5874C53.9294 77.6347 31.6072 78.7069 32.3624 93.1069C32.4491 94.7526 34.9995 94.7651 34.9128 93.1069C34.3062 81.4498 55.7369 80.0035 63.97 79.1557C65.5918 78.9937 65.6042 76.4254 63.97 76.5874Z" fill="#7F4100"/>
    <path d="M41.1035 264.897C43.4682 267.515 46.6005 269.423 50.0051 270.308C52.246 270.894 54.7345 271.006 56.7897 269.922C58.7458 268.887 60.0334 266.905 61.0486 264.922C63.339 260.409 64.8618 255.198 68.7864 252.043C69.814 251.22 70.9778 250.56 71.9063 249.625C72.4511 249.076 74.1472 246.67 72.9339 246.059C72.1168 245.647 70.3464 246.981 69.6778 247.33C66.917 248.764 63.4752 250.809 62.0266 253.751C63.2523 251.245 64.6885 248.852 66.3227 246.595C67.8827 244.426 69.7026 242.593 70.7054 240.062C70.7673 239.9 70.8292 239.725 70.7797 239.563C70.6683 239.189 70.1607 239.164 69.7769 239.239C68.4645 239.501 67.1646 240.012 66.0503 240.773C65.1961 241.359 64.577 242.269 63.8095 242.979C61.8533 244.75 60.2191 246.882 58.7953 249.113C59.1667 245.597 61.061 242.294 63.3761 239.7C63.9828 239.027 64.7628 238.416 65.2827 237.693C65.7903 236.995 66.0999 236.097 66.5208 235.337C66.657 235.1 66.7932 234.85 66.8055 234.576C66.8303 234.24 66.6694 233.89 66.3846 233.703C65.4808 233.093 63.3637 234.975 62.6704 235.549C61.3952 236.608 60.2934 237.893 59.3772 239.289C57.3468 242.356 56.0716 245.872 54.2888 249.088C54.1031 245.024 56.3687 241.334 57.8049 237.531C58.1268 236.671 58.2134 235.374 57.3344 235.137C56.8144 235 56.2945 235.374 55.9107 235.761C51.7508 239.987 52.4812 246.333 51.5032 251.694C51.4537 251.956 51.3918 252.23 51.206 252.417C50.8718 252.729 50.3394 252.592 49.9309 252.405C48.3338 251.682 46.6748 250.447 45.0034 250.971" fill="#DD7B66"/>
    <path d="M49.2369 203.382C42.5885 199.018 36.1135 194.393 29.787 189.593C26.7166 187.274 23.3491 184.88 20.0311 182.337C8.44293 198.47 -2.24148 216.76 0.407957 233.952C4.43164 260.06 42.9971 270.495 42.9971 270.495L51.4654 248.34L30.2946 226.26L49.2492 203.395L49.2369 203.382Z" fill="#7F4100"/>
</svg>
