<svg width="38" height="38" viewBox="0 0 38 38" fill="none" xmlns="http://www.w3.org/2000/svg">
<circle cx="18.6545" cy="18.6545" r="18.6545" fill="white"/>
<path d="M12.7775 29.5625H25.2225C27.6485 29.5625 28.8555 28.332 28.8555 25.8945V15.254C28.8555 13.742 28.6915 13.086 27.754 12.125L21.285 5.551C20.395 4.6365 19.668 4.4375 18.344 4.4375H12.7775C10.3635 4.4375 9.14453 5.6795 9.14453 8.1175V25.8945C9.14453 28.3435 10.3635 29.5625 12.7775 29.5625ZM12.871 27.676C11.664 27.676 11.031 27.031 11.031 25.8595V8.1525C11.031 6.9925 11.664 6.324 12.883 6.324H18.086V13.133C18.086 14.6095 18.836 15.336 20.289 15.336H26.969V25.8595C26.969 27.031 26.3475 27.676 25.129 27.676H12.871ZM20.5 13.566C20.043 13.566 19.855 13.379 19.855 12.91V6.6875L26.605 13.5665L20.5 13.566ZM23.3125 18.5585H14.4175C13.996 18.5585 13.6915 18.875 13.6915 19.2735C13.6915 19.6835 13.9965 20 14.418 20H23.3125C23.4084 20.0016 23.5035 19.9838 23.5924 19.9479C23.6812 19.9119 23.7619 19.8584 23.8297 19.7907C23.8975 19.7229 23.9509 19.6422 23.9869 19.5533C24.0229 19.4645 24.0406 19.3693 24.039 19.2735C24.039 18.875 23.7225 18.5585 23.3125 18.5585ZM23.3125 22.6485H14.4175C13.996 22.6485 13.6915 22.9765 13.6915 23.3865C13.6915 23.785 13.9965 24.09 14.418 24.09H23.3125C23.7225 24.09 24.039 23.785 24.039 23.3865C24.039 22.9765 23.7225 22.6485 23.3125 22.6485Z" fill="black"/>
</svg>
