<svg width="17" height="17" viewBox="0 0 17 17" fill="none" xmlns="http://www.w3.org/2000/svg">
<path d="M15.2193 12.8488H13.8581C13.7651 12.8488 13.678 12.8904 13.6199 12.9635C13.4844 13.1315 13.3392 13.2936 13.1862 13.4478C12.5606 14.0871 11.8196 14.5966 11.0041 14.9481C10.1592 15.3125 9.25113 15.4993 8.33399 15.4977C7.40654 15.4977 6.50812 15.3119 5.66392 14.9481C4.84844 14.5966 4.1074 14.0871 3.48178 13.4478C2.85505 12.8106 2.35531 12.0554 2.01024 11.224C1.65204 10.3621 1.47197 9.44687 1.47197 8.50002C1.47197 7.55316 1.65398 6.63793 2.01024 5.77607C2.35489 4.94386 2.85057 4.19467 3.48178 3.55223C4.113 2.90979 4.84683 2.40375 5.66392 2.05189C6.50812 1.68817 7.40654 1.50235 8.33399 1.50235C9.26145 1.50235 10.1599 1.68619 11.0041 2.05189C11.8212 2.40375 12.555 2.90979 13.1862 3.55223C13.3392 3.7084 13.4824 3.87049 13.6199 4.03653C13.678 4.10967 13.7671 4.15119 13.8581 4.15119H15.2193C15.3412 4.15119 15.4167 4.01281 15.349 3.90805C13.8639 1.55177 11.2655 -0.00787704 8.3127 2.99252e-05C3.67347 0.0118904 -0.046039 3.85665 0.000430725 8.58699C0.0469004 13.2422 3.7606 17 8.33399 17C11.279 17 13.8658 15.4423 15.349 13.092C15.4148 12.9872 15.3412 12.8488 15.2193 12.8488ZM16.9406 8.37548L14.193 6.16153C14.0904 6.07851 13.9413 6.15362 13.9413 6.28607V7.78839H7.86155C7.77636 7.78839 7.70665 7.85955 7.70665 7.94653V9.0535C7.70665 9.14048 7.77636 9.21164 7.86155 9.21164H13.9413V10.714C13.9413 10.8464 14.0924 10.9215 14.193 10.8385L16.9406 8.62455C16.9591 8.60976 16.9741 8.59086 16.9844 8.56928C16.9946 8.5477 17 8.52402 17 8.50002C17 8.47601 16.9946 8.45233 16.9844 8.43075C16.9741 8.40917 16.9591 8.39027 16.9406 8.37548Z" fill="black"/>
</svg>
