<svg width="25" height="23" viewBox="0 0 25 23" fill="none" xmlns="http://www.w3.org/2000/svg">
<g clip-path="url(#clip0_87_31)">
<path d="M7.53569 1.42284C5.55403 -0.143141 2.64065 0.147804 1.02848 2.07269C-0.583698 3.99757 -0.284172 6.82748 1.69749 8.39346L17.4339 20.829C19.4156 22.395 22.329 22.104 23.9411 20.1792C25.5533 18.2543 25.2538 15.4244 23.2721 13.8584L7.53569 1.42284Z" fill="white"/>
<path d="M16.167 1.64744C17.7749 -0.278137 20.6824 -0.577672 22.6648 1.00558C24.6472 2.56744 24.9555 5.39163 23.3256 7.31721" fill="white"/>
<path d="M9.73544 21.3526C8.12751 23.2781 5.22002 23.5777 3.23764 21.9944C1.25526 20.4326 0.946891 17.6084 2.57685 15.6828" fill="white"/>
</g>
<defs>
<clipPath id="clip0_87_31">
<rect width="25" height="23" fill="white"/>
</clipPath>
</defs>
</svg>
