<svg width="25" height="16" viewBox="0 0 25 16" fill="none" xmlns="http://www.w3.org/2000/svg">
<path d="M1.99414 1.66113C1.99414 1.66113 5.50291 3.71788 12.7896 3.96044C20.7541 4.22626 25.0005 2.72107 25.0005 2.72107V13.9584C25.0005 13.9584 18.189 15.55 10.9322 15.0217C3.67543 14.4901 1.99414 13.0746 1.99414 13.0746V1.66113Z" fill="#28A20A"/>
<path d="M0 0C0 0 3.50877 2.05675 10.7955 2.29931C18.76 2.56512 23.0064 1.05994 23.0064 1.05994V12.2973C23.0064 12.2973 16.1948 13.8889 8.93807 13.3606C1.68129 12.8289 0 11.4135 0 11.4135V0Z" fill="#3BEF0F"/>
<path d="M11.4468 10.294C13.3645 10.294 14.9191 8.80789 14.9191 6.97465C14.9191 5.14141 13.3645 3.65527 11.4468 3.65527C9.52918 3.65527 7.97461 5.14141 7.97461 6.97465C7.97461 8.80789 9.52918 10.294 11.4468 10.294Z" fill="#2EAA10"/>
</svg>
