<svg width="58" height="58" viewBox="0 0 58 58" fill="none" xmlns="http://www.w3.org/2000/svg">
    <circle cx="29" cy="29" r="29" fill="black"/>
    <path d="M19 31.9592V26.0401C19 25.4661 19.448 25.0001 20 25.0001H23.586C23.7183 24.9996 23.8492 24.9723 23.9707 24.9199C24.0922 24.8675 24.2019 24.791 24.293 24.6951L27.293 21.307C27.923 20.651 29 21.116 29 22.043V35.9572C29 36.8912 27.91 37.3522 27.284 36.6832L24.294 33.3142C24.2026 33.2155 24.0918 33.1367 23.9687 33.0827C23.8455 33.0287 23.7125 33.0006 23.578 33.0002H20C19.448 33.0002 19 32.5342 19 31.9592Z" stroke="#6D6969" stroke-linecap="round" stroke-linejoin="round"/>
    <path d="M33 27.1074L36.6729 30.7803" stroke="#6D6969" stroke-linecap="round"/>
    <path d="M36.6738 27L33.0009 30.6729" stroke="#6D6969" stroke-linecap="round"/>
</svg>
