<svg width="262" height="259" viewBox="0 0 262 259" fill="none" xmlns="http://www.w3.org/2000/svg">
<g clip-path="url(#clip0_101_16)">
<path d="M69 51.5C82.725 51.5 95.8878 56.9522 105.593 66.6572C115.298 76.3622 120.75 89.525 120.75 103.25C120.75 120.925 111.113 135.393 100.959 145.771C95.8842 150.9 90.3485 155.55 84.4215 159.663L81.972 161.331L80.822 162.095L78.6542 163.476L76.7223 164.654L74.3303 166.046C72.7059 166.97 70.869 167.456 69 167.456C67.131 167.456 65.2941 166.97 63.6697 166.046L61.2777 164.654L58.2878 162.814L57.1837 162.095L54.8262 160.526C48.4321 156.198 42.4756 151.256 37.0415 145.771C26.887 135.387 17.25 120.925 17.25 103.25C17.25 89.525 22.7022 76.3622 32.4072 66.6572C42.1122 56.9522 55.275 51.5 69 51.5ZM69 86C66.7347 86 64.4916 86.4462 62.3987 87.3131C60.3058 88.18 58.4042 89.4506 56.8024 91.0524C55.2006 92.6542 53.93 94.5558 53.0631 96.6487C52.1962 98.7416 51.75 100.985 51.75 103.25C51.75 105.515 52.1962 107.758 53.0631 109.851C53.93 111.944 55.2006 113.846 56.8024 115.448C58.4042 117.049 60.3058 118.32 62.3987 119.187C64.4916 120.054 66.7347 120.5 69 120.5C73.575 120.5 77.9626 118.683 81.1976 115.448C84.4326 112.213 86.25 107.825 86.25 103.25C86.25 98.675 84.4326 94.2874 81.1976 91.0524C77.9626 87.8174 73.575 86 69 86Z" fill="#7F4100"/>
</g>
<g clip-path="url(#clip1_101_16)">
<path d="M239.5 9.75C243.976 9.75 248.268 11.5279 251.432 14.6926C254.597 17.8572 256.375 22.1495 256.375 26.625C256.375 32.3887 253.233 37.1062 249.921 40.4906C248.267 42.1629 246.461 43.6793 244.529 45.0206L243.73 45.5644L243.355 45.8137L242.648 46.2637L242.018 46.6481L241.238 47.1019C240.708 47.4034 240.109 47.5619 239.5 47.5619C238.891 47.5619 238.292 47.4034 237.762 47.1019L236.982 46.6481L236.007 46.0481L235.647 45.8137L234.878 45.3019C232.793 43.8906 230.851 42.2792 229.079 40.4906C225.767 37.1044 222.625 32.3887 222.625 26.625C222.625 22.1495 224.403 17.8572 227.568 14.6926C230.732 11.5279 235.024 9.75 239.5 9.75ZM239.5 21C238.761 21 238.03 21.1455 237.347 21.4282C236.665 21.7109 236.045 22.1252 235.523 22.6475C235 23.1699 234.586 23.7899 234.303 24.4724C234.02 25.1549 233.875 25.8863 233.875 26.625C233.875 27.3637 234.02 28.0951 234.303 28.7776C234.586 29.46 235 30.0801 235.523 30.6025C236.045 31.1248 236.665 31.5391 237.347 31.8218C238.03 32.1045 238.761 32.25 239.5 32.25C240.992 32.25 242.423 31.6574 243.477 30.6025C244.532 29.5476 245.125 28.1168 245.125 26.625C245.125 25.1332 244.532 23.7024 243.477 22.6475C242.423 21.5926 240.992 21 239.5 21Z" fill="#7F4100"/>
</g>
<g clip-path="url(#clip2_101_16)">
<path d="M233.5 217.75C237.976 217.75 242.268 219.528 245.432 222.693C248.597 225.857 250.375 230.149 250.375 234.625C250.375 240.389 247.233 245.106 243.921 248.491C242.267 250.163 240.461 251.679 238.529 253.021L237.73 253.564L237.355 253.814L236.648 254.264L236.018 254.648L235.238 255.102C234.708 255.403 234.109 255.562 233.5 255.562C232.891 255.562 232.292 255.403 231.762 255.102L230.982 254.648L230.007 254.048L229.647 253.814L228.878 253.302C226.793 251.891 224.851 250.279 223.079 248.491C219.767 245.104 216.625 240.389 216.625 234.625C216.625 230.149 218.403 225.857 221.568 222.693C224.732 219.528 229.024 217.75 233.5 217.75ZM233.5 229C232.761 229 232.03 229.145 231.347 229.428C230.665 229.711 230.045 230.125 229.523 230.648C229 231.17 228.586 231.79 228.303 232.472C228.02 233.155 227.875 233.886 227.875 234.625C227.875 235.364 228.02 236.095 228.303 236.778C228.586 237.46 229 238.08 229.523 238.602C230.045 239.125 230.665 239.539 231.347 239.822C232.03 240.105 232.761 240.25 233.5 240.25C234.992 240.25 236.423 239.657 237.477 238.602C238.532 237.548 239.125 236.117 239.125 234.625C239.125 233.133 238.532 231.702 237.477 230.648C236.423 229.593 234.992 229 233.5 229Z" fill="#7F4100"/>
</g>
<path d="M69.0005 57.4791C86.1113 33.4283 142.3 -6.10206 230.17 28.1834" stroke="#7F441D" stroke-width="6"/>
<path d="M111 108.716C140.515 109.024 205.056 132.567 227.103 224.276" stroke="#7F441D" stroke-width="6"/>
<defs>
<clipPath id="clip0_101_16">
<rect width="138" height="138" fill="white" transform="translate(0 40)"/>
</clipPath>
<clipPath id="clip1_101_16">
<rect width="45" height="45" fill="white" transform="translate(217 6)"/>
</clipPath>
<clipPath id="clip2_101_16">
<rect width="45" height="45" fill="white" transform="translate(211 214)"/>
</clipPath>
</defs>
</svg>
