<svg width="107" height="96" viewBox="0 0 107 96" fill="none" xmlns="http://www.w3.org/2000/svg">
<path d="M91.4364 96L78.5477 83.3939H26.75C19.2924 83.3939 12.9697 80.8081 7.78182 75.6364C2.59394 70.4646 0 64.1616 0 56.7273C0 50.5212 1.92924 44.9939 5.78773 40.1454C9.64621 35.2646 14.6071 32.1455 20.6705 30.7879C20.9298 30.1414 21.173 29.5111 21.4 28.897C21.7242 28.2828 21.9674 27.6202 22.1295 26.9091L1.94545 6.78788L8.75455 0L98.2455 89.2121M26.75 73.697H68.8205L29.6682 34.6667C29.5061 35.5717 29.3926 36.4606 29.3277 37.3333C29.2305 38.0768 29.1818 38.8848 29.1818 39.7576H26.75C22.0485 39.7576 18.0441 41.4222 14.7368 44.7515C11.3971 48.0485 9.72727 52.0404 9.72727 56.7273C9.72727 61.4141 11.3971 65.4545 14.7368 68.8485C18.0441 72.0808 22.0485 73.697 26.75 73.697ZM100.191 77.3333L93.1386 70.5454C94.5329 69.4141 95.5705 68.105 96.2514 66.6182C96.9323 65.1313 97.2727 63.4505 97.2727 61.5757C97.2727 58.1818 96.0892 55.3212 93.7223 52.9939C91.3877 50.6343 88.5182 49.4545 85.1136 49.4545H77.8182V39.7576C77.8182 33.0667 75.4512 27.3454 70.7173 22.5939C65.9833 17.8747 60.2442 15.5152 53.5 15.5152C51.3276 15.5152 49.22 15.7737 47.1773 16.2909C45.1345 16.8404 43.1891 17.6808 41.3409 18.8121L34.2886 11.7818C37.142 9.84242 40.1574 8.35555 43.335 7.32121C46.545 6.31919 49.9333 5.81818 53.5 5.81818C63.0003 5.81818 71.0415 9.11515 77.6236 15.7091C84.2382 22.2707 87.5455 30.2869 87.5455 39.7576C93.1549 40.404 97.7915 42.8283 101.455 47.0303C105.152 51.1677 107 56.0162 107 61.5757C107 64.8081 106.4 67.7333 105.2 70.3515C103.968 73.0667 102.298 75.3939 100.191 77.3333Z" fill="#6D6969"/>
</svg>
