<svg width="17" height="13" viewBox="0 0 17 13" fill="none" xmlns="http://www.w3.org/2000/svg">
<path d="M4.25 8.66667H6.8C7.02543 8.66667 7.24163 8.57536 7.40104 8.41283C7.56045 8.25029 7.65 8.02985 7.65 7.8C7.65 7.57015 7.56045 7.34971 7.40104 7.18717C7.24163 7.02464 7.02543 6.93333 6.8 6.93333H4.25C4.02457 6.93333 3.80837 7.02464 3.64896 7.18717C3.48955 7.34971 3.4 7.57015 3.4 7.8C3.4 8.02985 3.48955 8.25029 3.64896 8.41283C3.80837 8.57536 4.02457 8.66667 4.25 8.66667ZM14.45 0H2.55C1.8737 0 1.2251 0.273928 0.746878 0.761522C0.26866 1.24912 0 1.91044 0 2.6V10.4C0 11.0896 0.26866 11.7509 0.746878 12.2385C1.2251 12.7261 1.8737 13 2.55 13H14.45C15.1263 13 15.7749 12.7261 16.2531 12.2385C16.7313 11.7509 17 11.0896 17 10.4V2.6C17 1.91044 16.7313 1.24912 16.2531 0.761522C15.7749 0.273928 15.1263 0 14.45 0ZM15.3 10.4C15.3 10.6299 15.2104 10.8503 15.051 11.0128C14.8916 11.1754 14.6754 11.2667 14.45 11.2667H2.55C2.32457 11.2667 2.10837 11.1754 1.94896 11.0128C1.78955 10.8503 1.7 10.6299 1.7 10.4V5.2H15.3V10.4ZM15.3 3.46667H1.7V2.6C1.7 2.37015 1.78955 2.14971 1.94896 1.98717C2.10837 1.82464 2.32457 1.73333 2.55 1.73333H14.45C14.6754 1.73333 14.8916 1.82464 15.051 1.98717C15.2104 2.14971 15.3 2.37015 15.3 2.6V3.46667Z" fill="black"/>
</svg>
