<svg width="14" height="17" viewBox="0 0 14 17" fill="none" xmlns="http://www.w3.org/2000/svg">
<path d="M1.38661 4.93056C1.12883 3.31726 2.32596 1.86812 4.15472 1.33719C4.47925 1.24291 4.8294 1.26974 5.13383 1.41223C5.43826 1.55472 5.67406 1.80214 5.79319 2.10408L6.38028 3.5917C6.47479 3.83102 6.49188 4.09172 6.42936 4.34033C6.36683 4.58894 6.22754 4.81413 6.02937 4.98699L4.28294 6.50667C4.19685 6.58173 4.13271 6.67671 4.09676 6.78235C4.0608 6.88798 4.05427 7.00066 4.07779 7.10941L4.09399 7.1761L4.13583 7.34281C4.35302 8.15285 4.68395 8.93144 5.11972 9.6576C5.5944 10.4292 6.18348 11.1319 6.86885 11.7441L6.92283 11.7903C7.01002 11.8638 7.11577 11.9146 7.22978 11.9378C7.34378 11.9609 7.46216 11.9556 7.57336 11.9224L9.83131 11.2465C10.0879 11.17 10.3627 11.168 10.6205 11.2409C10.8783 11.3138 11.1073 11.4582 11.2781 11.6556L12.347 12.888C12.7924 13.401 12.7384 14.1551 12.2269 14.6078C10.8273 15.8479 8.90276 16.1018 7.56391 15.0797C5.92279 13.8219 4.53931 12.2877 3.4826 10.554C2.41732 8.82164 1.7071 6.91375 1.38661 4.93056ZM5.49222 7.19405L6.93903 5.93214C7.3356 5.58657 7.61443 5.13626 7.73973 4.63903C7.86502 4.1418 7.83105 3.62033 7.64219 3.14157L7.05645 1.65395C6.81668 1.04668 6.34235 0.549079 5.73003 0.262454C5.11771 -0.0241706 4.41345 -0.0782653 3.76063 0.111184C1.48918 0.771636 -0.334179 2.70682 0.0518181 5.12421C0.321746 6.81189 0.94393 8.95868 2.31651 11.2004C3.45657 13.0698 4.94893 14.7239 6.71904 16.08C8.7273 17.6125 11.4077 17.0893 13.1487 15.5478C13.6469 15.1071 13.9493 14.5023 13.9942 13.8569C14.0391 13.2115 13.8231 12.5742 13.3903 12.075L12.3214 10.8413C11.9794 10.4469 11.5213 10.1586 11.0058 10.0133C10.4902 9.86794 9.94072 9.87226 9.42777 10.0257L7.55312 10.5861C7.0691 10.1119 6.64513 9.5855 6.28985 9.01767C5.94667 8.4436 5.67923 7.83155 5.49357 7.19533" fill="#6D6969"/>
</svg>
