<svg width="16" height="16" viewBox="0 0 16 16" fill="none" xmlns="http://www.w3.org/2000/svg">
<path d="M4.97998 1C4.90504 1.00011 4.83108 1.01706 4.76357 1.0496C4.69607 1.08214 4.63674 1.12944 4.58997 1.188L1.53993 5H6C6.13261 5 6.25978 5.05268 6.35355 5.14645C6.44732 5.24021 6.5 5.36739 6.5 5.5C6.5 5.89782 6.65804 6.27936 6.93935 6.56066C7.22066 6.84196 7.60219 7 8.00002 7C8.39786 7 8.77939 6.84196 9.0607 6.56066C9.34201 6.27936 9.50005 5.89782 9.50005 5.5C9.50005 5.36739 9.55273 5.24021 9.64649 5.14645C9.74026 5.05268 9.86744 5 10.0001 5H14.4601L11.4101 1.188C11.3633 1.12944 11.304 1.08214 11.2365 1.0496C11.169 1.01706 11.095 1.00011 11.0201 1H4.97998ZM3.80996 0.563C3.95035 0.387503 4.12838 0.245795 4.3309 0.148346C4.53341 0.050898 4.75524 0.000200429 4.97998 0L11.0201 0C11.2448 0.000200429 11.4666 0.050898 11.6692 0.148346C11.8717 0.245795 12.0497 0.387503 12.1901 0.563L15.8901 5.188C15.9319 5.24011 15.9628 5.30004 15.981 5.36428C15.9992 5.42851 16.0043 5.49574 15.9961 5.562L15.6061 8.686C15.5608 9.04889 15.3844 9.38271 15.1102 9.62469C14.836 9.86667 14.4828 10.0001 14.1171 10H1.88294C1.51722 10.0001 1.16405 9.86667 0.889836 9.62469C0.615624 9.38271 0.439262 9.04889 0.393913 8.686L0.00390741 5.562C-0.00428897 5.49574 0.000867782 5.42851 0.0190734 5.36428C0.0372791 5.30004 0.068165 5.24011 0.109909 5.188L3.80996 0.563ZM0.124909 11.17C0.171765 11.1167 0.229441 11.0739 0.294101 11.0446C0.358761 11.0153 0.428921 11.0001 0.499915 11H6C6.13261 11 6.25978 11.0527 6.35355 11.1464C6.44732 11.2402 6.5 11.3674 6.5 11.5C6.5 11.8978 6.65804 12.2794 6.93935 12.5607C7.22066 12.842 7.60219 13 8.00002 13C8.39786 13 8.77939 12.842 9.0607 12.5607C9.34201 12.2794 9.50005 11.8978 9.50005 11.5C9.50005 11.3674 9.55273 11.2402 9.64649 11.1464C9.74026 11.0527 9.86744 11 10.0001 11H15.5001C15.571 11 15.6411 11.0151 15.7057 11.0443C15.7703 11.0734 15.828 11.116 15.8749 11.1691C15.9218 11.2223 15.9569 11.2848 15.9778 11.3525C15.9987 11.4203 16.0049 11.4917 15.9961 11.562L15.6061 14.686C15.5608 15.0489 15.3844 15.3827 15.1102 15.6247C14.836 15.8667 14.4828 16.0001 14.1171 16H1.88294C1.51722 16.0001 1.16405 15.8667 0.889836 15.6247C0.615624 15.3827 0.439262 15.0489 0.393913 14.686L0.00390741 11.562C-0.00493844 11.4917 0.00127558 11.4202 0.0221372 11.3525C0.0429987 11.2847 0.0780309 11.2222 0.124909 11.169V11.17Z" fill="black"/>
</svg>
