<svg width="22" height="22" viewBox="0 0 22 22" fill="none" xmlns="http://www.w3.org/2000/svg">
<path d="M7.5625 9.625C8.47418 9.625 9.34852 9.26284 9.99318 8.61818C10.6378 7.97352 11 7.09918 11 6.1875C11 5.27582 10.6378 4.40148 9.99318 3.75682C9.34852 3.11216 8.47418 2.75 7.5625 2.75C6.65082 2.75 5.77648 3.11216 5.13182 3.75682C4.48716 4.40148 4.125 5.27582 4.125 6.1875C4.125 7.09918 4.48716 7.97352 5.13182 8.61818C5.77648 9.26284 6.65082 9.625 7.5625 9.625ZM13.6427 8.56625C14.3468 8.35599 15.0777 8.24945 15.8125 8.25C16.5473 8.24945 17.2782 8.35599 17.9823 8.56625C18.2988 8.16002 18.495 7.67304 18.5484 7.16077C18.6018 6.64851 18.5102 6.13156 18.2841 5.66878C18.0581 5.20601 17.7066 4.81601 17.2698 4.54322C16.8329 4.27042 16.3282 4.12579 15.8132 4.12579C15.2982 4.12579 14.7935 4.27042 14.3566 4.54322C13.9198 4.81601 13.5683 5.20601 13.3422 5.66878C13.1162 6.13156 13.0246 6.64851 13.078 7.16077C13.1314 7.67304 13.3275 8.16002 13.6441 8.56625M9.97837 11H4.125C3.57799 11 3.05339 11.2173 2.66659 11.6041C2.2798 11.9909 2.0625 12.5155 2.0625 13.0625V13.1656C2.0625 13.1656 2.0625 17.1875 7.5625 17.1875C7.84575 17.1875 8.11479 17.177 8.36963 17.1559C8.28982 16.7125 8.24979 16.263 8.25 15.8125C8.25 13.9838 8.899 12.3062 9.97837 11ZM15.8125 22C17.17 21.9999 18.4897 21.5534 19.5684 20.7292C20.647 19.9051 21.4248 18.7492 21.7817 17.4395C22.1386 16.1298 22.055 14.739 21.5436 13.4816C21.0322 12.2241 20.1215 11.1697 18.9518 10.4809C17.7822 9.79203 16.4184 9.50694 15.0707 9.66956C13.723 9.83217 12.4662 10.4335 11.494 11.3808C10.5217 12.3281 9.88793 13.5688 9.69034 14.9118C9.49275 16.2548 9.74228 17.6256 10.4005 18.8127L9.65112 21.2726C9.62211 21.37 9.61996 21.4734 9.64489 21.5719C9.66983 21.6704 9.72092 21.7604 9.79277 21.8322C9.86463 21.9041 9.95456 21.9552 10.0531 21.9801C10.1516 22.005 10.255 22.0029 10.3524 21.9739L12.8136 21.2259C13.7315 21.734 14.7634 22.0004 15.8125 22ZM12.375 14.4375C12.375 14.2552 12.4474 14.0803 12.5764 13.9514C12.7053 13.8224 12.8802 13.75 13.0625 13.75H18.5625C18.7448 13.75 18.9197 13.8224 19.0486 13.9514C19.1776 14.0803 19.25 14.2552 19.25 14.4375C19.25 14.6198 19.1776 14.7947 19.0486 14.9236C18.9197 15.0526 18.7448 15.125 18.5625 15.125H13.0625C12.8802 15.125 12.7053 15.0526 12.5764 14.9236C12.4474 14.7947 12.375 14.6198 12.375 14.4375ZM13.0625 17.875C12.8802 17.875 12.7053 17.8026 12.5764 17.6736C12.4474 17.5447 12.375 17.3698 12.375 17.1875C12.375 17.0052 12.4474 16.8303 12.5764 16.7014C12.7053 16.5724 12.8802 16.5 13.0625 16.5H15.8125C15.9948 16.5 16.1697 16.5724 16.2986 16.7014C16.4276 16.8303 16.5 17.0052 16.5 17.1875C16.5 17.3698 16.4276 17.5447 16.2986 17.6736C16.1697 17.8026 15.9948 17.875 15.8125 17.875H13.0625Z" fill="black"/>
</svg>
