<svg width="38" height="38" viewBox="0 0 38 38" fill="none" xmlns="http://www.w3.org/2000/svg">
<circle cx="18.6545" cy="18.6545" r="18.6545" fill="white"/>
<path d="M19 24.5288C19.2183 24.5288 19.4008 24.455 19.5475 24.3075C19.695 24.16 19.7687 23.9775 19.7687 23.76C19.7687 23.5425 19.695 23.3596 19.5475 23.2113C19.4 23.0629 19.2175 22.9892 19 22.99C18.7825 22.9908 18.6 23.0646 18.4525 23.2113C18.305 23.3579 18.2313 23.5408 18.2313 23.76C18.2313 23.9792 18.305 24.1617 18.4525 24.3075C18.6 24.4533 18.7825 24.5271 19 24.5288ZM18.375 20.8275H19.625V13.2313H18.375V20.8275ZM14.8413 29L9 23.17V14.8413L14.83 9H23.1587L29 14.83V23.1587L23.17 29H14.8413Z" fill="black"/>
</svg>
