<svg width="38" height="38" viewBox="0 0 38 38" fill="none" xmlns="http://www.w3.org/2000/svg">
<circle cx="18.6545" cy="18.6545" r="18.6545" fill="white"/>
<path d="M14.6663 8.66602H11.9997C11.2924 8.66602 10.6142 8.94697 10.1141 9.44706C9.61396 9.94716 9.33301 10.6254 9.33301 11.3327V27.3327C9.33301 28.0399 9.61396 28.7182 10.1141 29.2183C10.6142 29.7184 11.2924 29.9993 11.9997 29.9993H19.5957M27.9997 20.666V25.9993H33.333M27.9997 16.666V11.3327C27.9997 10.6254 27.7187 9.94716 27.2186 9.44706C26.7185 8.94697 26.0403 8.66602 25.333 8.66602H22.6663" stroke="black" stroke-width="2" stroke-linecap="round" stroke-linejoin="round"/>
<path d="M14.666 16.6667H19.9993M14.666 22H18.666M14.666 8.66667C14.666 7.95942 14.947 7.28115 15.4471 6.78105C15.9472 6.28095 16.6254 6 17.3327 6H19.9993C20.7066 6 21.3849 6.28095 21.885 6.78105C22.3851 7.28115 22.666 7.95942 22.666 8.66667C22.666 9.37391 22.3851 10.0522 21.885 10.5523C21.3849 11.0524 20.7066 11.3333 19.9993 11.3333H17.3327C16.6254 11.3333 15.9472 11.0524 15.4471 10.5523C14.947 10.0522 14.666 9.37391 14.666 8.66667ZM22.666 26C22.666 27.4145 23.2279 28.771 24.2281 29.7712C25.2283 30.7714 26.5849 31.3333 27.9993 31.3333C29.4138 31.3333 30.7704 30.7714 31.7706 29.7712C32.7708 28.771 33.3327 27.4145 33.3327 26C33.3327 24.5855 32.7708 23.229 31.7706 22.2288C30.7704 21.2286 29.4138 20.6667 27.9993 20.6667C26.5849 20.6667 25.2283 21.2286 24.2281 22.2288C23.2279 23.229 22.666 24.5855 22.666 26Z" stroke="black" stroke-width="2" stroke-linecap="round" stroke-linejoin="round"/>
</svg>
