<svg width="34" height="23" viewBox="0 0 34 23" fill="none" xmlns="http://www.w3.org/2000/svg">
<path d="M14.5345 0.857482C13.8441 0.857482 13.2887 1.38634 13.2887 2.0437C13.2887 2.70107 13.8441 3.22992 14.5345 3.22992H17.5297L18.381 4.72753L13.2887 8.76563L10.9372 6.52663C10.3143 5.93352 9.46822 5.60237 8.58577 5.60237H3.32222C2.40344 5.60237 1.66114 6.30916 1.66114 7.184V8.76563H6.64439C11.2331 8.76563 14.9498 12.3045 14.9498 16.6738C14.9498 17.2175 14.8927 17.7463 14.7837 18.2554H18.4381C18.3291 17.7463 18.272 17.2175 18.272 16.6738C18.272 14.0937 19.5697 11.8004 21.5785 10.3571L22.3779 11.7707C20.8882 12.9322 19.933 14.6967 19.933 16.6738C19.933 20.1682 22.9074 23.0003 26.5774 23.0003C30.2473 23.0003 33.2217 20.1682 33.2217 16.6738C33.2217 13.1794 30.2473 10.3473 26.5774 10.3473C25.8766 10.3473 25.2018 10.451 24.5685 10.6438L21.7083 5.60237H24.9163C25.8351 5.60237 26.5774 4.89558 26.5774 4.02074V2.43911C26.5774 1.56427 25.8351 0.857482 24.9163 0.857482H23.8573C23.468 0.857482 23.0943 0.985989 22.7932 1.22323L20.3327 3.17556L19.606 1.89048C19.2426 1.25289 18.5419 0.852539 17.7788 0.852539H14.5345V0.857482ZM24.0183 14.6572L25.4821 17.2372C25.8091 17.8155 26.567 18.028 27.1691 17.7167C27.7713 17.4053 27.9997 16.6837 27.6726 16.1103L26.2088 13.5303C26.3282 13.5155 26.4528 13.5105 26.5774 13.5105C28.4097 13.5105 29.8995 14.929 29.8995 16.6738C29.8995 18.4185 28.4097 19.837 26.5774 19.837C24.745 19.837 23.2552 18.4185 23.2552 16.6738C23.2552 15.9077 23.5407 15.2058 24.0183 14.6572ZM9.72258 17.86C9.22944 19.0215 8.03554 19.837 6.64439 19.837C4.81201 19.837 3.32222 18.4185 3.32222 16.6738C3.32222 14.929 4.81201 13.5105 6.64439 13.5105C8.04073 13.5105 9.23463 14.326 9.72258 15.4875H13.1693C12.5879 12.5615 9.88868 10.3473 6.64439 10.3473C2.97443 10.3473 6.10352e-05 13.1794 6.10352e-05 16.6738C6.10352e-05 20.1682 2.97443 23.0003 6.64439 23.0003C9.88868 23.0003 12.5879 20.786 13.1745 17.86H9.72258ZM6.64439 18.2554C7.08493 18.2554 7.50743 18.0888 7.81895 17.7922C8.13046 17.4955 8.30547 17.0932 8.30547 16.6738C8.30547 16.2543 8.13046 15.852 7.81895 15.5554C7.50743 15.2588 7.08493 15.0921 6.64439 15.0921C6.20384 15.0921 5.78134 15.2588 5.46982 15.5554C5.15831 15.852 4.9833 16.2543 4.9833 16.6738C4.9833 17.0932 5.15831 17.4955 5.46982 17.7922C5.78134 18.0888 6.20384 18.2554 6.64439 18.2554Z" fill="black"/>
<rect x="1.70483" width="8.09245" height="5.11102" rx="2.55551" fill="black"/>
</svg>
