<svg width="24" height="24" viewBox="0 0 24 24" fill="none" xmlns="http://www.w3.org/2000/svg">
<circle cx="12" cy="12" r="11.5" fill="black" stroke="white"/>
<path d="M11.3194 8.37275C11.0193 8.37275 10.7778 8.6027 10.7778 8.88851C10.7778 9.17433 11.0193 9.40427 11.3194 9.40427H12.6217L12.9918 10.0554L10.7778 11.8111L9.75538 10.8376C9.48455 10.5798 9.11667 10.4358 8.73299 10.4358H6.44444C6.04497 10.4358 5.72222 10.7431 5.72222 11.1235V11.8111H7.88889C9.88403 11.8111 11.5 13.3498 11.5 15.2495C11.5 15.4859 11.4752 15.7159 11.4278 15.9372H13.0167C12.9693 15.7159 12.9444 15.4859 12.9444 15.2495C12.9444 14.1278 13.5087 13.1306 14.3821 12.5031L14.7297 13.1177C14.0819 13.6227 13.6667 14.3899 13.6667 15.2495C13.6667 16.7689 14.9599 18.0002 16.5556 18.0002C18.1512 18.0002 19.4444 16.7689 19.4444 15.2495C19.4444 13.7302 18.1512 12.4988 16.5556 12.4988C16.2509 12.4988 15.9575 12.5439 15.6821 12.6278L14.4385 10.4358H15.8333C16.2328 10.4358 16.5556 10.1285 16.5556 9.74811V9.06043C16.5556 8.68006 16.2328 8.37275 15.8333 8.37275H15.3729C15.2036 8.37275 15.0411 8.42863 14.9102 8.53178L13.8405 9.38063L13.5245 8.82189C13.3665 8.54467 13.0618 8.37061 12.73 8.37061H11.3194V8.37275ZM15.4429 14.3727L16.0793 15.4945C16.2215 15.7459 16.551 15.8384 16.8128 15.703C17.0747 15.5676 17.174 15.2538 17.0318 15.0045L16.3953 13.8828C16.4472 13.8763 16.5014 13.8742 16.5556 13.8742C17.3523 13.8742 18 14.4909 18 15.2495C18 16.0081 17.3523 16.6249 16.5556 16.6249C15.7589 16.6249 15.1111 16.0081 15.1111 15.2495C15.1111 14.9164 15.2352 14.6113 15.4429 14.3727ZM9.22726 15.7653C9.01285 16.2703 8.49375 16.6249 7.88889 16.6249C7.09219 16.6249 6.44444 16.0081 6.44444 15.2495C6.44444 14.4909 7.09219 13.8742 7.88889 13.8742C8.49601 13.8742 9.0151 14.2288 9.22726 14.7338H10.7259C10.4731 13.4616 9.29948 12.4988 7.88889 12.4988C6.29323 12.4988 5 13.7302 5 15.2495C5 16.7689 6.29323 18.0002 7.88889 18.0002C9.29948 18.0002 10.4731 17.0375 10.7281 15.7653H9.22726ZM7.88889 15.9372C8.08043 15.9372 8.26413 15.8648 8.39958 15.7358C8.53502 15.6068 8.61111 15.4319 8.61111 15.2495C8.61111 15.0671 8.53502 14.8922 8.39958 14.7633C8.26413 14.6343 8.08043 14.5618 7.88889 14.5618C7.69734 14.5618 7.51364 14.6343 7.3782 14.7633C7.24276 14.8922 7.16667 15.0671 7.16667 15.2495C7.16667 15.4319 7.24276 15.6068 7.3782 15.7358C7.51364 15.8648 7.69734 15.9372 7.88889 15.9372Z" fill="white"/>
<rect x="5.74109" y="8" width="3.51852" height="2.22222" rx="1.11111" fill="white"/>
</svg>
