<svg width="112" height="108" viewBox="0 0 112 108" fill="none" xmlns="http://www.w3.org/2000/svg">
<path d="M22.5208 53.155C21.8016 61.8727 24.3187 69.1375 29.7127 75.6757C35.1066 82.214 42.2985 85.1199 50.9289 85.1199H86.8885C88.6864 85.1199 90.4844 84.3934 91.9228 82.9405C93.3612 81.4875 94.0804 79.6713 94.0804 77.8551V74.9493C94.0804 72.7698 93.7208 70.2272 93.3612 66.958H63.8743C60.2783 66.958 57.4016 65.5051 54.8844 62.9624C52.3672 60.4198 50.9289 57.1506 50.9289 53.8815C50.9289 48.0697 53.446 44.0741 58.84 41.8947L76.1006 34.2667C69.9874 29.9079 62.7955 27.3652 54.5248 27.002C46.6137 26.2755 39.4218 28.8182 32.949 33.9035C26.4763 38.9888 23.2399 45.1638 22.5208 53.155ZM58.1208 53.8815C58.1208 55.3345 58.84 56.7874 59.9188 57.8771C60.9975 58.9668 62.4359 59.6933 63.8743 59.6933H91.9228C89.7652 51.7021 86.5289 45.1638 81.8541 40.0785L61.7167 48.433C59.1996 49.1594 58.1208 50.9756 58.1208 53.8815Z" fill="#FFFCFC"/>
<rect width="112" height="107.52" rx="27" fill="black"/>
<path d="M22.5208 53.155C21.8016 61.8727 24.3187 69.1375 29.7127 75.6757C35.1066 82.214 42.2985 85.1199 50.9289 85.1199H86.8885C88.6864 85.1199 90.4844 84.3934 91.9228 82.9405C93.3612 81.4875 94.0804 79.6713 94.0804 77.8551V74.9493C94.0804 72.7698 93.7208 70.2272 93.3612 66.958H63.8743C60.2783 66.958 57.4016 65.5051 54.8844 62.9624C52.3672 60.4198 50.9289 57.1506 50.9289 53.8815C50.9289 48.0697 53.446 44.0741 58.84 41.8947L76.1006 34.2667C69.9874 29.9079 62.7955 27.3652 54.5248 27.002C46.6137 26.2755 39.4218 28.8182 32.949 33.9035C26.4763 38.9888 23.2399 45.1638 22.5208 53.155ZM58.1208 53.8815C58.1208 55.3345 58.84 56.7874 59.9188 57.8771C60.9975 58.9668 62.4359 59.6933 63.8743 59.6933H91.9228C89.7652 51.7021 86.5289 45.1638 81.8541 40.0785L61.7167 48.433C59.1996 49.1594 58.1208 50.9756 58.1208 53.8815Z" fill="#FFFCFC"/>
</svg>
