<svg width="32" height="37" viewBox="0 0 32 37" fill="none" xmlns="http://www.w3.org/2000/svg">
<path d="M9.64213 16.2276C9.50435 16.0892 9.34058 15.9794 9.16022 15.9044C8.97987 15.8295 8.78649 15.7909 8.59119 15.7909C8.39588 15.7909 8.2025 15.8295 8.02215 15.9044C7.84179 15.9794 7.67802 16.0892 7.54024 16.2276C7.40182 16.3654 7.29199 16.5292 7.21704 16.7095C7.1421 16.8899 7.10352 17.0833 7.10352 17.2786C7.10352 17.4739 7.1421 17.6673 7.21704 17.8476C7.29199 18.028 7.40182 18.1917 7.54024 18.3295L12.8838 23.673L12.9705 23.7598C13.1008 23.8903 13.2556 23.9939 13.426 24.0646C13.5964 24.1353 13.7791 24.1717 13.9636 24.1717C14.1481 24.1717 14.3308 24.1353 14.5012 24.0646C14.6716 23.9939 14.8264 23.8903 14.9568 23.7598L24.1861 14.5304C24.3167 14.4001 24.4203 14.2453 24.491 14.0749C24.5616 13.9044 24.598 13.7218 24.598 13.5373C24.598 13.3528 24.5616 13.1701 24.491 12.9997C24.4203 12.8293 24.3167 12.6745 24.1861 12.5441L24.0705 12.4285C23.9401 12.2979 23.7853 12.1943 23.6149 12.1237C23.4445 12.053 23.2618 12.0166 23.0773 12.0166C22.8929 12.0166 22.7102 12.053 22.5398 12.1237C22.3693 12.1943 22.2145 12.2979 22.0842 12.4285L13.9616 20.547L9.64213 16.2276Z" fill="white"/>
<path d="M15.8571 0L0 5.28571V21.1429C0 29.9015 7.09855 37 15.8571 37C24.6157 37 31.7143 29.9015 31.7143 21.1429V5.28571L15.8571 0ZM28.7411 21.1429C28.7411 28.2579 22.9722 34.0268 15.8571 34.0268C8.74208 34.0268 2.97321 28.2579 2.97321 21.1429V7.51562L15.8571 2.97321L28.7411 7.51562V21.1429Z" fill="white"/>
</svg>
