<svg width="15" height="18" viewBox="0 0 15 18" fill="none" xmlns="http://www.w3.org/2000/svg">
<path d="M4.14341 4.28543C3.72665 4.28543 3.32695 4.11987 3.03225 3.82517C2.73755 3.53047 2.57199 3.13078 2.57199 2.71401C2.57199 2.29724 2.73755 1.89754 3.03225 1.60284C3.32695 1.30814 3.72665 1.14258 4.14341 1.14258C4.34978 1.14258 4.55412 1.18322 4.74477 1.2622C4.93543 1.34117 5.10866 1.45692 5.25458 1.60284C5.4005 1.74876 5.51625 1.92199 5.59523 2.11265C5.6742 2.3033 5.71484 2.50764 5.71484 2.71401C5.71484 2.92037 5.6742 3.12471 5.59523 3.31537C5.51625 3.50602 5.4005 3.67925 5.25458 3.82517C5.10866 3.9711 4.93543 4.08685 4.74477 4.16582C4.55412 4.24479 4.34978 4.28543 4.14341 4.28543Z" stroke="black" stroke-width="2" stroke-linecap="round" stroke-linejoin="round"/>
<path d="M5.71484 2.71488L13.572 2.71484" stroke="black" stroke-width="2" stroke-linecap="round" stroke-linejoin="round"/>
<path d="M10.4289 10.5706C10.8456 10.5706 11.2453 10.405 11.54 10.1103C11.8347 9.81563 12.0003 9.41593 12.0003 8.99916C12.0003 8.58239 11.8347 8.1827 11.54 7.888C11.2453 7.5933 10.8456 7.42773 10.4289 7.42773C10.0121 7.42773 9.61238 7.5933 9.31768 7.888C9.02298 8.1827 8.85742 8.58239 8.85742 8.99916C8.85742 9.41593 9.02298 9.81563 9.31768 10.1103C9.61238 10.405 10.0121 10.5706 10.4289 10.5706Z" stroke="black" stroke-width="2" stroke-linecap="round" stroke-linejoin="round"/>
<path d="M8.85714 9.00003L1 9" stroke="black" stroke-width="2" stroke-linecap="round" stroke-linejoin="round"/>
<path d="M4.14341 16.8577C3.72665 16.8577 3.32695 16.6921 3.03225 16.3974C2.73755 16.1027 2.57199 15.703 2.57199 15.2863C2.57199 14.8695 2.73755 14.4698 3.03225 14.1751C3.32695 13.8804 3.72665 13.7148 4.14341 13.7148C4.34978 13.7148 4.55412 13.7555 4.74477 13.8345C4.93543 13.9134 5.10866 14.0292 5.25458 14.1751C5.4005 14.321 5.51625 14.4943 5.59523 14.6849C5.6742 14.8756 5.71484 15.0799 5.71484 15.2863C5.71484 15.4926 5.6742 15.697 5.59523 15.8876C5.51625 16.0783 5.4005 16.2515 5.25458 16.3974C5.10866 16.5434 4.93543 16.6591 4.74477 16.7381C4.55412 16.8171 4.34978 16.8577 4.14341 16.8577Z" stroke="black" stroke-width="2" stroke-linecap="round" stroke-linejoin="round"/>
<path d="M5.71484 15.2852L13.572 15.2852" stroke="black" stroke-width="2" stroke-linecap="round" stroke-linejoin="round"/>
</svg>
