<svg width="58" height="58" viewBox="0 0 58 58" fill="none" xmlns="http://www.w3.org/2000/svg">
    <circle cx="29" cy="29" r="29" fill="black"/>
    <path d="M34 25.5001C35.333 27.2781 35.333 30.7221 34 32.5002M37 22C40.988 25.8081 41.012 32.2172 37 36.0002M20 31.9592V26.0401C20 25.4661 20.448 25.0001 21 25.0001H24.586C24.7183 24.9996 24.8492 24.9723 24.9707 24.9199C25.0922 24.8675 25.2019 24.791 25.293 24.6951L28.293 21.307C28.923 20.651 30 21.116 30 22.043V35.9572C30 36.8912 28.91 37.3522 28.284 36.6832L25.294 33.3142C25.2026 33.2155 25.0918 33.1367 24.9687 33.0827C24.8455 33.0287 24.7125 33.0006 24.578 33.0002H21C20.448 33.0002 20 32.5342 20 31.9592Z" stroke="#6D6969" stroke-linecap="round" stroke-linejoin="round"/>
</svg>
