<svg width="38" height="38" viewBox="0 0 38 38" fill="none" xmlns="http://www.w3.org/2000/svg">
<circle cx="18.6545" cy="18.6545" r="18.6545" fill="white"/>
<path d="M19 31.6667L18.7083 28.1667H18.4167C15.6556 28.1667 13.3125 27.2042 11.3875 25.2792C9.4625 23.3542 8.5 21.0111 8.5 18.25C8.5 15.4889 9.4625 13.1458 11.3875 11.2208C13.3125 9.29584 15.6556 8.33334 18.4167 8.33334C19.7972 8.33334 21.0856 8.59078 22.2818 9.10567C23.4781 9.62056 24.5281 10.3303 25.4318 11.2348C26.3356 12.1394 27.0449 13.1894 27.5598 14.3848C28.0747 15.5803 28.3326 16.8687 28.3333 18.25C28.3333 19.7083 28.0953 21.1083 27.6193 22.45C27.1433 23.7917 26.4916 25.0361 25.664 26.1833C24.838 27.3306 23.8561 28.3708 22.7182 29.3042C21.5803 30.2375 20.3409 31.025 19 31.6667ZM21.3333 27.4083C22.7139 26.2417 23.837 24.8759 24.7027 23.311C25.5683 21.7461 26.0008 20.0591 26 18.25C26 16.1306 25.2658 14.337 23.7973 12.8693C22.3289 11.4017 20.5353 10.6674 18.4167 10.6667C16.2972 10.6667 14.5037 11.4009 13.036 12.8693C11.5683 14.3378 10.8341 16.1313 10.8333 18.25C10.8333 20.3694 11.5676 22.1634 13.036 23.6318C14.5044 25.1003 16.298 25.8341 18.4167 25.8333H21.3333V27.4083ZM18.3875 24.6375C18.7181 24.6375 19 24.5208 19.2333 24.2875C19.4667 24.0542 19.5833 23.7722 19.5833 23.4417C19.5833 23.1111 19.4667 22.8292 19.2333 22.5958C19 22.3625 18.7181 22.2458 18.3875 22.2458C18.0569 22.2458 17.775 22.3625 17.5417 22.5958C17.3083 22.8292 17.1917 23.1111 17.1917 23.4417C17.1917 23.7722 17.3083 24.0542 17.5417 24.2875C17.775 24.5208 18.0569 24.6375 18.3875 24.6375ZM17.5417 20.9333H19.2917C19.2917 20.35 19.35 19.9417 19.4667 19.7083C19.5833 19.475 19.9528 19.0472 20.575 18.425C20.925 18.075 21.2167 17.6958 21.45 17.2875C21.6833 16.8792 21.8 16.4417 21.8 15.975C21.8 14.9833 21.4648 14.2398 20.7943 13.7443C20.1239 13.2489 19.3313 13.0008 18.4167 13C17.5611 13 16.8417 13.2384 16.2583 13.7152C15.675 14.1919 15.2667 14.7702 15.0333 15.45L16.6667 16.0917C16.7639 15.7611 16.9486 15.4356 17.2208 15.1152C17.4931 14.7947 17.8917 14.6341 18.4167 14.6333C18.9417 14.6333 19.3356 14.7792 19.5985 15.0708C19.8614 15.3625 19.9924 15.6833 19.9917 16.0333C19.9917 16.3639 19.8944 16.6606 19.7 16.9235C19.5056 17.1864 19.2722 17.4536 19 17.725C18.3194 18.3083 17.9064 18.7703 17.761 19.111C17.6156 19.4517 17.5424 20.0591 17.5417 20.9333Z" fill="black"/>
<circle cx="18.6545" cy="18.6545" r="18.6545" fill="white"/>
<path d="M19 31.6667L18.7083 28.1667H18.4167C15.6556 28.1667 13.3125 27.2042 11.3875 25.2792C9.4625 23.3542 8.5 21.0111 8.5 18.25C8.5 15.4889 9.4625 13.1458 11.3875 11.2208C13.3125 9.29584 15.6556 8.33334 18.4167 8.33334C19.7972 8.33334 21.0856 8.59078 22.2818 9.10567C23.4781 9.62056 24.5281 10.3303 25.4318 11.2348C26.3356 12.1394 27.0449 13.1894 27.5598 14.3848C28.0747 15.5803 28.3326 16.8687 28.3333 18.25C28.3333 19.7083 28.0953 21.1083 27.6193 22.45C27.1433 23.7917 26.4916 25.0361 25.664 26.1833C24.838 27.3306 23.8561 28.3708 22.7182 29.3042C21.5803 30.2375 20.3409 31.025 19 31.6667ZM21.3333 27.4083C22.7139 26.2417 23.837 24.8759 24.7027 23.311C25.5683 21.7461 26.0008 20.0591 26 18.25C26 16.1306 25.2658 14.337 23.7973 12.8693C22.3289 11.4017 20.5353 10.6674 18.4167 10.6667C16.2972 10.6667 14.5037 11.4009 13.036 12.8693C11.5683 14.3378 10.8341 16.1313 10.8333 18.25C10.8333 20.3694 11.5676 22.1634 13.036 23.6318C14.5044 25.1003 16.298 25.8341 18.4167 25.8333H21.3333V27.4083ZM18.3875 24.6375C18.7181 24.6375 19 24.5208 19.2333 24.2875C19.4667 24.0542 19.5833 23.7722 19.5833 23.4417C19.5833 23.1111 19.4667 22.8292 19.2333 22.5958C19 22.3625 18.7181 22.2458 18.3875 22.2458C18.0569 22.2458 17.775 22.3625 17.5417 22.5958C17.3083 22.8292 17.1917 23.1111 17.1917 23.4417C17.1917 23.7722 17.3083 24.0542 17.5417 24.2875C17.775 24.5208 18.0569 24.6375 18.3875 24.6375ZM17.5417 20.9333H19.2917C19.2917 20.35 19.35 19.9417 19.4667 19.7083C19.5833 19.475 19.9528 19.0472 20.575 18.425C20.925 18.075 21.2167 17.6958 21.45 17.2875C21.6833 16.8792 21.8 16.4417 21.8 15.975C21.8 14.9833 21.4648 14.2398 20.7943 13.7443C20.1239 13.2489 19.3313 13.0008 18.4167 13C17.5611 13 16.8417 13.2384 16.2583 13.7152C15.675 14.1919 15.2667 14.7702 15.0333 15.45L16.6667 16.0917C16.7639 15.7611 16.9486 15.4356 17.2208 15.1152C17.4931 14.7947 17.8917 14.6341 18.4167 14.6333C18.9417 14.6333 19.3356 14.7792 19.5985 15.0708C19.8614 15.3625 19.9924 15.6833 19.9917 16.0333C19.9917 16.3639 19.8944 16.6606 19.7 16.9235C19.5056 17.1864 19.2722 17.4536 19 17.725C18.3194 18.3083 17.9064 18.7703 17.761 19.111C17.6156 19.4517 17.5424 20.0591 17.5417 20.9333Z" fill="black"/>
</svg>
