<svg width="38" height="38" viewBox="0 0 38 38" fill="none" xmlns="http://www.w3.org/2000/svg">
<circle cx="18.6545" cy="18.6545" r="18.6545" fill="white"/>
<path d="M19.79 9.58213C19.6558 9.58235 19.5233 9.61238 19.4021 9.67006C19.2809 9.72773 19.174 9.81161 19.0892 9.91563L19.0191 9.96759C17.7052 9.56837 16.3077 9.53202 14.9748 9.86238C13.6419 10.1927 12.4231 10.8775 11.4477 11.8441C10.5839 12.7003 9.94151 13.7538 9.57603 14.9138C9.21056 16.0738 9.133 17.3054 9.35004 18.502L9.33191 18.5202L8.17433 19.6693C7.93558 19.9063 7.74609 20.1882 7.61678 20.4987C7.48747 20.8093 7.4209 21.1424 7.4209 21.4788C7.4209 21.8152 7.48747 22.1483 7.61678 22.4588C7.74609 22.7694 7.93558 23.0513 8.17433 23.2883C8.45569 23.5672 8.79738 23.7777 9.17303 23.9037C9.54868 24.0296 9.94824 24.0675 10.3409 24.0145C10.4808 24.5241 10.7743 24.9782 11.1814 25.3153C11.5884 25.6523 12.0894 25.8558 12.6162 25.8983C12.6703 26.5179 12.947 27.0969 13.395 27.5283C13.8431 27.9597 14.4322 28.2142 15.0534 28.2448C15.0848 28.8563 15.3349 29.458 15.805 29.9244C16.7233 30.8379 18.1636 30.9165 19.1726 30.1625L19.6402 30.6265C20.1268 31.109 20.7843 31.3798 21.4696 31.3798C22.1549 31.3798 22.8125 31.109 23.299 30.6265C23.7461 30.1806 23.9962 29.6139 24.0482 29.0339C24.651 28.9823 25.2164 28.7201 25.6451 28.2932C26.0737 27.8662 26.3383 27.302 26.3924 26.6994C26.9234 26.6502 27.426 26.4373 27.8308 26.0901C28.2356 25.7429 28.5225 25.2786 28.652 24.7612C29.0387 24.8072 29.4308 24.7652 29.7991 24.6384C30.1673 24.5116 30.5022 24.3033 30.7786 24.029C31.0172 23.792 31.2065 23.5102 31.3357 23.1997C31.4649 22.8893 31.5314 22.5563 31.5314 22.2201C31.5314 21.8838 31.4649 21.5509 31.3357 21.2404C31.2065 20.93 31.0172 20.6482 30.7786 20.4112L29.7721 19.4095L29.9799 18.6048C30.4298 16.8535 30.2033 14.997 29.3455 13.4053C28.7216 12.2497 27.7965 11.2845 26.6683 10.6123C25.5402 9.94001 24.251 9.58571 22.9377 9.58696H20.996C20.913 9.58321 20.83 9.5816 20.747 9.58213H19.79ZM23.3244 15.5573L27.5101 19.7152L27.5137 19.7213L27.5306 19.737L29.4942 21.6884C29.5643 21.7581 29.62 21.8409 29.658 21.9321C29.696 22.0234 29.7155 22.1212 29.7155 22.2201C29.7155 22.3189 29.696 22.4168 29.658 22.508C29.62 22.5993 29.5643 22.6821 29.4942 22.7518C29.3517 22.8927 29.1593 22.9717 28.9589 22.9717C28.7584 22.9717 28.5661 22.8927 28.4236 22.7518L26.46 20.8003C26.289 20.6309 26.058 20.5358 25.8172 20.5358C25.5764 20.5358 25.3454 20.6309 25.1744 20.8003L25.155 20.8208C25.0707 20.9044 25.0037 21.0039 24.958 21.1135C24.9123 21.2231 24.8888 21.3407 24.8888 21.4594C24.8888 21.5782 24.9123 21.6958 24.958 21.8054C25.0037 21.915 25.0707 22.0145 25.155 22.098L26.6848 23.6181C26.7553 23.6878 26.8113 23.7708 26.8495 23.8623C26.8877 23.9537 26.9074 24.0519 26.9074 24.151C26.9074 24.2501 26.8877 24.3483 26.8495 24.4398C26.8113 24.5312 26.7553 24.6142 26.6848 24.6839C26.5554 24.8119 26.3845 24.8894 26.203 24.9023C26.0214 24.9151 25.8413 24.8625 25.6952 24.754C25.5193 24.6225 25.3019 24.5589 25.0829 24.5746C24.8638 24.5904 24.6578 24.6845 24.5025 24.8398C24.3477 24.9945 24.2547 25.2004 24.2409 25.4189C24.2271 25.6374 24.2935 25.8533 24.4276 26.0263C24.5391 26.171 24.5939 26.3515 24.5816 26.5337C24.5694 26.716 24.491 26.8875 24.3612 27.016C24.2298 27.1461 24.0556 27.224 23.8711 27.2351C23.6865 27.2462 23.5042 27.1898 23.3582 27.0764C23.1836 26.9401 22.9653 26.872 22.7441 26.8847C22.523 26.8973 22.3139 26.9899 22.156 27.1453C21.9985 27.3002 21.9036 27.5076 21.8893 27.728C21.8751 27.9484 21.9425 28.1664 22.0786 28.3403C22.1928 28.4872 22.2492 28.6709 22.2372 28.8565C22.2251 29.0422 22.1455 29.2171 22.0134 29.348C21.8686 29.4912 21.6732 29.5715 21.4696 29.5715C21.266 29.5715 21.0706 29.4912 20.9259 29.348L20.4764 28.9022L20.6032 28.7753C20.8418 28.5383 21.0311 28.2565 21.1604 27.9461C21.2896 27.6356 21.3561 27.3027 21.3561 26.9664C21.3561 26.6302 21.2896 26.2972 21.1604 25.9868C21.0311 25.6763 20.8418 25.3945 20.6032 25.1575C20.1513 24.7077 19.5485 24.4416 18.9116 24.4108C18.8768 23.7901 18.6186 23.2029 18.1846 22.7578C17.7506 22.3127 17.1701 22.0397 16.5505 21.9893C16.5014 21.384 16.2369 20.8163 15.805 20.3895C15.5236 20.1105 15.1819 19.9 14.8063 19.7741C14.4306 19.6482 14.031 19.6102 13.6384 19.6633C13.4856 19.1068 13.1502 18.6178 12.6861 18.2748C12.2219 17.9319 11.656 17.7549 11.0792 17.7722C10.987 16.9223 11.0878 16.0625 11.3743 15.257C11.6607 14.4515 12.1253 13.721 12.7334 13.1201C13.2998 12.5577 13.9769 12.1191 14.7218 11.832C15.4667 11.545 16.263 11.4158 17.0604 11.4526L15.2515 12.8217C14.9576 13.0441 14.7105 13.3225 14.5246 13.6409C14.3386 13.9592 14.2175 14.3111 14.1681 14.6764C14.1186 15.0417 14.142 15.4132 14.2367 15.7695C14.3314 16.1258 14.4956 16.4598 14.7199 16.7524C15.1729 17.3429 15.8409 17.7303 16.5784 17.8301C17.3159 17.9299 18.063 17.7341 18.6566 17.2853L20.9392 15.5561L23.3244 15.5573ZM16.3451 14.268L20.138 11.3946H20.747C20.8224 11.3943 20.8978 11.3963 20.973 11.4007H22.9377C23.9235 11.3993 24.8913 11.6649 25.7384 12.169C26.5856 12.6732 27.2804 13.3973 27.7493 14.2644C28.3475 15.3761 28.5347 16.6545 28.2858 17.8834L24.4059 14.0215C24.3214 13.9341 24.2202 13.8645 24.1083 13.817C23.9965 13.7695 23.8761 13.7449 23.7546 13.7448H20.6359C20.4383 13.7447 20.2461 13.8092 20.0885 13.9285L17.5631 15.8413C17.3513 16.0011 17.0849 16.0709 16.822 16.0353C16.5591 15.9998 16.3208 15.8619 16.159 15.6516C16.08 15.5486 16.0221 15.4311 15.9888 15.3056C15.9554 15.1802 15.9472 15.0494 15.9646 14.9208C15.982 14.7922 16.0247 14.6683 16.0902 14.5563C16.1557 14.4443 16.2427 14.3463 16.3463 14.268M12.2935 23.8791C12.2234 23.8095 12.1677 23.7267 12.1297 23.6354C12.0917 23.5442 12.0722 23.4463 12.0722 23.3475C12.0722 23.2486 12.0917 23.1508 12.1297 23.0595C12.1677 22.9683 12.2234 22.8854 12.2935 22.8158L13.4499 21.6679C13.5924 21.5269 13.7848 21.4479 13.9852 21.4479C14.1856 21.4479 14.378 21.5269 14.5205 21.6679C14.6602 21.8068 14.7395 21.9951 14.7413 22.1921C14.7431 22.3891 14.6672 22.5789 14.5302 22.7203L14.5205 22.7312L13.3641 23.8791L13.3532 23.89C13.21 24.0264 13.0192 24.1017 12.8214 24.0998C12.6236 24.098 12.4343 24.0193 12.2935 23.8803M11.7002 19.8107C11.8366 19.9524 11.9118 20.1421 11.9096 20.3388C11.9073 20.5355 11.8278 20.7234 11.6882 20.8619L10.5318 22.0123C10.3893 22.1532 10.1969 22.2322 9.9965 22.2322C9.79606 22.2322 9.60372 22.1532 9.46121 22.0123C9.39106 21.9426 9.33539 21.8598 9.2974 21.7685C9.25941 21.6773 9.23985 21.5794 9.23985 21.4806C9.23985 21.3817 9.25941 21.2839 9.2974 21.1926C9.33539 21.1014 9.39106 21.0186 9.46121 20.9489L10.6188 19.7998C10.7613 19.6589 10.9536 19.5798 11.1541 19.5798C11.3545 19.5798 11.5469 19.6589 11.6894 19.7998L11.7002 19.8107ZM18.1624 28.6484C18.0199 28.7894 17.8276 28.8684 17.6271 28.8684C17.4267 28.8684 17.2343 28.7894 17.0918 28.6484C17.0217 28.5788 16.966 28.496 16.928 28.4047C16.89 28.3135 16.8705 28.2156 16.8705 28.1168C16.8705 28.0179 16.89 27.92 16.928 27.8288C16.966 27.7376 17.0217 27.6547 17.0918 27.5851L18.2482 26.436C18.3907 26.295 18.5831 26.216 18.7835 26.216C18.9839 26.216 19.1763 26.295 19.3188 26.436C19.3889 26.5056 19.4446 26.5884 19.4826 26.6797C19.5206 26.7709 19.5401 26.8688 19.5401 26.9676C19.5401 27.0665 19.5206 27.1643 19.4826 27.2556C19.4446 27.3468 19.3889 27.4297 19.3188 27.4993L18.1624 28.6484ZM15.7204 26.2221C15.5779 26.363 15.3855 26.4421 15.1851 26.4421C14.9846 26.4421 14.7923 26.363 14.6498 26.2221C14.5096 26.0833 14.4298 25.8948 14.4278 25.6975C14.4258 25.5002 14.5016 25.3101 14.6389 25.1684L14.6498 25.1588L15.8062 24.0096L15.8158 23.9988C15.9593 23.8622 16.1504 23.7869 16.3485 23.7889C16.5466 23.791 16.7361 23.8701 16.8767 24.0096C16.9469 24.0793 17.0026 24.1621 17.0406 24.2533C17.0785 24.3446 17.0981 24.4425 17.0981 24.5413C17.0981 24.6401 17.0785 24.738 17.0406 24.8292C17.0026 24.9205 16.9469 25.0033 16.8767 25.073L15.7204 26.2221Z" fill="black"/>
</svg>
