<svg width="219" height="219" viewBox="0 0 219 219" fill="none" xmlns="http://www.w3.org/2000/svg">
<path d="M26.0762 74.8118C24.58 68.0721 24.8098 61.0638 26.7442 54.4365C28.6785 47.8093 32.2549 41.7778 37.1417 36.9012C42.0286 32.0246 48.0676 28.4608 54.6988 26.5403C61.3301 24.6198 68.3389 24.4048 75.0755 25.9151C78.7833 20.1162 83.8913 15.344 89.9285 12.0383C95.9657 8.73268 102.738 7 109.621 7C116.504 7 123.276 8.73268 129.313 12.0383C135.351 15.344 140.459 20.1162 144.166 25.9151C150.913 24.3982 157.934 24.6123 164.576 26.5375C171.218 28.4626 177.265 32.0363 182.155 36.9261C187.044 41.8159 190.618 47.863 192.543 54.5048C194.468 61.1467 194.683 68.1675 193.166 74.9143C198.965 78.6222 203.737 83.7301 207.042 89.7674C210.348 95.8046 212.081 102.577 212.081 109.46C212.081 116.343 210.348 123.115 207.042 129.152C203.737 135.19 198.965 140.297 193.166 144.005C194.676 150.742 194.461 157.751 192.54 164.382C190.62 171.013 187.056 177.052 182.18 181.939C177.303 186.826 171.271 190.402 164.644 192.337C158.017 194.271 151.009 194.501 144.269 193.005C140.566 198.826 135.454 203.618 129.406 206.939C123.359 210.259 116.571 212 109.672 212C102.773 212 95.9855 210.259 89.938 206.939C83.8904 203.618 78.7785 198.826 75.0755 193.005C68.3389 194.515 61.3301 194.3 54.6988 192.379C48.0676 190.459 42.0286 186.895 37.1417 182.018C32.2549 177.142 28.6785 171.11 26.7442 164.483C24.8098 157.856 24.58 150.848 26.0762 144.108C20.2328 140.41 15.4196 135.294 12.0843 129.236C8.74899 123.178 7 116.375 7 109.46C7 102.545 8.74899 95.7415 12.0843 89.6837C15.4196 83.6258 20.2328 78.5099 26.0762 74.8118Z" stroke="black" stroke-width="13" stroke-linecap="round" stroke-linejoin="round"/>
<path d="M78.8672 109.46L99.369 129.962L140.373 88.958" stroke="black" stroke-width="13" stroke-linecap="round" stroke-linejoin="round"/>
</svg>
