<svg width="59" height="59" viewBox="0 0 59 59" fill="none" xmlns="http://www.w3.org/2000/svg">
<path d="M7.9319 20.5318C7.54508 18.7894 7.60448 16.9775 8.10459 15.2641C8.6047 13.5507 9.52932 11.9913 10.7927 10.7306C12.0562 9.46977 13.6175 8.54841 15.3319 8.05189C17.0463 7.55537 18.8584 7.49977 20.6 7.89024C21.5586 6.39101 22.8792 5.15722 24.4401 4.30259C26.0009 3.44796 27.7518 3 29.5313 3C31.3108 3 33.0616 3.44796 34.6225 4.30259C36.1833 5.15722 37.5039 6.39101 38.4625 7.89024C40.2068 7.49807 42.022 7.55342 43.7392 8.05115C45.4563 8.54887 47.0197 9.4728 48.2839 10.737C49.5481 12.0012 50.472 13.5646 50.9697 15.2817C51.4675 16.9989 51.5228 18.814 51.1306 20.5583C52.6299 21.517 53.8637 22.8375 54.7183 24.3984C55.5729 25.9592 56.0209 27.7101 56.0209 29.4896C56.0209 31.2691 55.5729 33.02 54.7183 34.5808C53.8637 36.1417 52.6299 37.4623 51.1306 38.4209C51.5211 40.1625 51.4655 41.9746 50.969 43.689C50.4725 45.4034 49.5511 46.9647 48.2903 48.2281C47.0296 49.4916 45.4702 50.4162 43.7568 50.9163C42.0434 51.4164 40.2315 51.4758 38.4891 51.089C37.5317 52.594 36.2101 53.833 34.6465 54.6915C33.083 55.5499 31.3282 56 29.5445 56C27.7609 56 26.006 55.5499 24.4425 54.6915C22.879 53.833 21.5574 52.594 20.6 51.089C18.8584 51.4795 17.0463 51.4239 15.3319 50.9273C13.6175 50.4308 12.0562 49.5095 10.7927 48.2487C9.52932 46.9879 8.6047 45.4285 8.10459 43.7151C7.60448 42.0018 7.54508 40.1898 7.9319 38.4474C6.42116 37.4913 5.17676 36.1686 4.31447 34.6025C3.45218 33.0363 3 31.2775 3 29.4896C3 27.7017 3.45218 25.9429 4.31447 24.3768C5.17676 22.8106 6.42116 21.4879 7.9319 20.5318Z" fill="black" stroke="white" stroke-width="5" stroke-linecap="round" stroke-linejoin="round"/>
<path d="M21.5801 29.4899L26.8805 34.7904L37.4815 24.1895" fill="black"/>
<path d="M21.5801 29.4899L26.8805 34.7904L37.4815 24.1895" stroke="white" stroke-width="5" stroke-linecap="round" stroke-linejoin="round"/>
</svg>
