<svg width="182" height="221" viewBox="0 0 182 221" fill="none" xmlns="http://www.w3.org/2000/svg">
<g clip-path="url(#clip0_126_1591)">
<path d="M103.346 13.7393H81.0547V43.1035H103.346V13.7393Z" fill="black"/>
<path d="M109.353 21.4382H73.874C70.1454 21.4382 67.1226 18.4095 67.1226 14.6738C65.2866 5.77315 71.307 -0.972287 81.6526 0.115823H108.641C112.641 0.115823 115.884 3.36542 115.884 7.3727V14.8948C115.884 18.5085 112.96 21.4382 109.353 21.4382Z" fill="black"/>
<path d="M168.533 57.458L159.938 48.4077L148.062 59.7304L156.658 68.7807L168.533 57.458Z" fill="black"/>
<path d="M161.055 38.5266L178.354 56.74C178.645 57.0464 178.631 57.5299 178.327 57.8201L170.718 65.0745C170.463 65.3182 170.059 65.3082 169.815 65.0521L151.743 46.0245C151.582 45.8553 151.588 45.586 151.758 45.4235L159.047 38.4737C159.615 37.9326 160.513 37.9564 161.052 38.5235L161.055 38.5266Z" fill="black"/>
<path d="M28.7967 68.4075L37.3926 59.3572L25.5171 48.0345L16.9212 57.0848L28.7967 68.4075Z" fill="black"/>
<path d="M33.7094 45.6554L15.6372 64.6829C15.3939 64.9391 14.99 64.9491 14.7343 64.7054L7.08619 57.4132C6.80315 57.1434 6.79203 56.694 7.06138 56.4105L24.4009 38.1544C24.9411 37.5857 25.8395 37.5649 26.4055 38.1046L33.6946 45.0543C33.8635 45.2154 33.8716 45.4846 33.7094 45.6554Z" fill="black"/>
<path d="M91.0011 221C141.26 221 182.002 180.179 182.002 129.824C182.002 79.4689 141.26 38.6479 91.0011 38.6479C40.7426 38.6479 0 79.4689 0 129.824C0 180.179 40.7426 221 91.0011 221Z" fill="black"/>
<path d="M91.9588 208.149C134.527 208.149 169.035 173.574 169.035 130.925C169.035 88.2749 134.527 53.7004 91.9588 53.7004C49.3909 53.7004 14.8828 88.2749 14.8828 130.925C14.8828 173.574 49.3909 208.149 91.9588 208.149Z" fill="white"/>
<path d="M92.8968 55.3105H90.1113V77.4558H92.8968V55.3105Z" fill="url(#paint0_linear_126_1591)"/>
<path d="M92.8968 184.774H90.1113V206.92H92.8968V184.774Z" fill="url(#paint1_linear_126_1591)"/>
<path d="M167.378 131.414L167.35 128.624L145.248 128.852L145.277 131.642L167.378 131.414Z" fill="url(#paint2_linear_126_1591)"/>
<path d="M38.7299 132.695L38.7012 129.902L16.5996 130.13L16.6283 132.923L38.7299 132.695Z" fill="url(#paint3_linear_126_1591)"/>
<path d="M92.8968 57.2932H90.1113V69.2224H92.8968V57.2932Z" fill="url(#paint4_linear_126_1591)"/>
<path d="M127.551 66.7362L125.094 65.4226L119.489 75.9477L121.947 77.2613L127.551 66.7362Z" fill="url(#paint5_linear_126_1591)"/>
<path d="M156.042 95.3993L154.639 92.9885L144.354 98.9982L145.757 101.409L156.042 95.3993Z" fill="url(#paint6_linear_126_1591)"/>
<path d="M155.766 167.945L157.088 165.486L146.607 159.827L145.284 162.286L155.766 167.945Z" fill="url(#paint7_linear_126_1591)"/>
<path d="M126.947 196.428L129.361 195.035L123.421 184.697L121.007 186.089L126.947 196.428Z" fill="url(#paint8_linear_126_1591)"/>
<path d="M54.5651 195.739L57.0098 197.077L62.7165 186.607L60.2719 185.269L54.5651 195.739Z" fill="url(#paint9_linear_126_1591)"/>
<path d="M24.8713 163.947L26.1445 166.429L36.7342 160.976L35.461 158.494L24.8713 163.947Z" fill="url(#paint10_linear_126_1591)"/>
<path d="M24.045 100.639L22.9414 103.201L33.8734 107.928L34.977 105.365L24.045 100.639Z" fill="url(#paint11_linear_126_1591)"/>
<path d="M46.9669 72.1071L44.7734 73.8271L52.1119 83.2211L54.3053 81.501L46.9669 72.1071Z" fill="url(#paint12_linear_126_1591)"/>
<path d="M91.7962 215.932C76.6949 215.932 61.8687 211.906 48.9183 204.287C48.786 204.209 48.7419 204.039 48.8196 203.904C48.8973 203.771 49.0675 203.727 49.2019 203.805C62.0661 211.373 76.7957 215.372 91.7983 215.372C99.9698 215.372 108.049 214.202 115.808 211.895C115.955 211.851 116.111 211.935 116.155 212.083C116.199 212.23 116.115 212.386 115.968 212.43C108.158 214.751 100.026 215.93 91.8004 215.93L91.7962 215.932Z" fill="black"/>
<path d="M171.694 158.965C171.664 158.965 171.633 158.961 171.603 158.95C171.459 158.9 171.381 158.742 171.431 158.595C174.496 149.73 176.048 140.431 176.048 130.96C176.048 112.303 170.097 94.6213 158.836 79.8234C158.743 79.7013 158.767 79.5245 158.888 79.4319C159.01 79.3393 159.185 79.3625 159.279 79.4846C164.791 86.7267 169.076 94.7476 172.019 103.322C175.063 112.193 176.607 121.491 176.607 130.958C176.607 140.425 175.042 149.85 171.958 158.773C171.919 158.889 171.811 158.961 171.696 158.961L171.694 158.965Z" fill="black"/>
<path d="M10.4755 154.436C10.3536 154.436 10.2423 154.356 10.2066 154.234C8.07025 146.699 6.98633 138.87 6.98633 130.96C6.98633 121.45 8.54289 112.111 11.614 103.206C14.5822 94.5961 18.9053 86.55 24.4614 79.2932C29.9587 72.112 36.5253 65.8801 43.9783 60.7742C51.5426 55.5926 59.8296 51.6989 68.6144 49.2028C68.7635 49.1607 68.9169 49.247 68.9589 49.3943C69.0009 49.5438 68.9148 49.6974 68.7677 49.7395C32.721 59.9787 7.54509 93.3775 7.54509 130.96C7.54509 138.817 8.62061 146.596 10.7443 154.08C10.7864 154.228 10.7002 154.383 10.5532 154.425C10.528 154.432 10.5028 154.436 10.4776 154.436H10.4755Z" fill="black"/>
<path d="M69.9096 17.5004C69.7773 17.5004 69.6597 17.4057 69.6365 17.2689C68.5274 10.9843 68.9265 7.3075 70.9662 4.97132C74.531 0.894591 83.0637 1.2587 98.5537 1.92167L99.4423 1.95955C99.5956 1.96586 99.7154 2.09635 99.7091 2.24999C99.7028 2.40363 99.5725 2.52149 99.4192 2.51728L98.5306 2.4794C83.2129 1.82485 74.7747 1.46285 71.3864 5.33964C69.4937 7.50323 69.124 11.1527 70.1869 17.172C70.2142 17.3236 70.1134 17.4688 69.96 17.4962C69.9432 17.4983 69.9264 17.5004 69.9117 17.5004H69.9096Z" fill="black"/>
</g>
<path d="M55 131L78.6667 155L126 107" stroke="black" stroke-width="13" stroke-linecap="round" stroke-linejoin="round"/>
<defs>
<linearGradient id="paint0_linear_126_1591" x1="95.1045" y1="61.7416" x2="31.0272" y2="85.941" gradientUnits="userSpaceOnUse">
<stop/>
<stop offset="1" stop-color="#FE7062"/>
</linearGradient>
<linearGradient id="paint1_linear_126_1591" x1="95.1045" y1="191.205" x2="31.0272" y2="215.405" gradientUnits="userSpaceOnUse">
<stop/>
<stop offset="1" stop-color="#FE7062"/>
</linearGradient>
<linearGradient id="paint2_linear_126_1591" x1="160.983" y1="133.692" x2="136.007" y2="69.8085" gradientUnits="userSpaceOnUse">
<stop/>
<stop offset="1" stop-color="#FE7062"/>
</linearGradient>
<linearGradient id="paint3_linear_126_1591" x1="32.3343" y1="134.975" x2="7.32626" y2="71.0552" gradientUnits="userSpaceOnUse">
<stop/>
<stop offset="1" stop-color="#FE7062"/>
</linearGradient>
<linearGradient id="paint4_linear_126_1591" x1="95.1045" y1="60.7575" x2="46.0159" y2="95.1726" gradientUnits="userSpaceOnUse">
<stop/>
<stop offset="1" stop-color="#FE7062"/>
</linearGradient>
<linearGradient id="paint5_linear_126_1591" x1="127.872" y1="70.8339" x2="68.4028" y2="78.1274" gradientUnits="userSpaceOnUse">
<stop/>
<stop offset="1" stop-color="#FE7062"/>
</linearGradient>
<linearGradient id="paint6_linear_126_1591" x1="154.167" y1="99.0553" x2="99.6844" y2="74.0846" gradientUnits="userSpaceOnUse">
<stop/>
<stop offset="1" stop-color="#FE7062"/>
</linearGradient>
<linearGradient id="paint7_linear_126_1591" x1="151.674" y1="168.25" x2="144.564" y2="108.616" gradientUnits="userSpaceOnUse">
<stop/>
<stop offset="1" stop-color="#FE7062"/>
</linearGradient>
<linearGradient id="paint8_linear_126_1591" x1="123.309" y1="194.529" x2="148.695" y2="140.156" gradientUnits="userSpaceOnUse">
<stop/>
<stop offset="1" stop-color="#FE7062"/>
</linearGradient>
<linearGradient id="paint9_linear_126_1591" x1="54.2848" y1="191.638" x2="113.822" y2="184.926" gradientUnits="userSpaceOnUse">
<stop/>
<stop offset="1" stop-color="#FE7062"/>
</linearGradient>
<linearGradient id="paint10_linear_126_1591" x1="26.9374" y1="160.396" x2="80.0207" y2="188.229" gradientUnits="userSpaceOnUse">
<stop/>
<stop offset="1" stop-color="#FE7062"/>
</linearGradient>
<linearGradient id="paint11_linear_126_1591" x1="28.0943" y1="99.9805" x2="40.3353" y2="158.742" gradientUnits="userSpaceOnUse">
<stop/>
<stop offset="1" stop-color="#FE7062"/>
</linearGradient>
<linearGradient id="paint12_linear_126_1591" x1="50.8365" y1="73.4717" x2="33.3939" y2="130.899" gradientUnits="userSpaceOnUse">
<stop/>
<stop offset="1" stop-color="#FE7062"/>
</linearGradient>
<clipPath id="clip0_126_1591">
<rect width="182" height="221" fill="white"/>
</clipPath>
</defs>
</svg>
