<svg width="22" height="18" viewBox="0 0 22 18" fill="none" xmlns="http://www.w3.org/2000/svg">
<path d="M15 5.50007C16.333 7.2781 16.333 10.7221 15 12.5002M18 2.00003C21.988 5.80808 22.012 12.2172 18 16.0002M1 11.9592V6.04008C1 5.46607 1.448 5.00007 2 5.00007H5.586C5.71833 4.9996 5.8492 4.97233 5.97071 4.91991C6.09222 4.86749 6.20185 4.791 6.293 4.69506L9.293 1.30702C9.923 0.651008 11 1.11601 11 2.04303V15.9572C11 16.8912 9.91 17.3522 9.284 16.6832L6.294 13.3142C6.20259 13.2155 6.09185 13.1367 5.96867 13.0827C5.84549 13.0287 5.7125 13.0006 5.578 13.0002H2C1.448 13.0002 1 12.5342 1 11.9592Z" stroke="black" stroke-linecap="round" stroke-linejoin="round"/>
</svg>
